<?xml version="1.0" encoding="UTF-8"?><svg id="Layer_1" xmlns="http://www.w3.org/2000/svg" width="419.56" height="474.93" viewBox="0 0 419.56 474.93"><defs><style>.cls-1{fill:none;}</style></defs><path class="cls-1" d="M417.69,471.36H2.69V-2.64H417.69V471.36ZM48.7,30.51l.28,1.79c3.66,.21,7.32,.52,10.98,.61,11.44,.3,22.89,.63,34.33,.76,13.57,.16,27.15-.09,40.72,.28,11.41,.31,22.79,1.75,34.19,1.78,14.11,.05,28.22-.86,42.34-1.3,3.21-.1,4.98,1,4.43,4.78-3.79,25.79-3.59,51.6-1.31,77.55,1.18,13.51,.41,27.19,.56,40.79,.14,12.45,.21,24.9,.56,37.35,.1,3.71-1.33,5.2-4.83,5.34-5.65,.23-11.3,.76-16.95,.8-20.42,.14-40.85,.42-61.26,.07-14.41-.25-28.81-1.38-43.2-2.24-7.24-.43-14.46-1.36-21.7-1.63-8.32-.32-16.65-.29-24.97-.16-4.3,.07-5.43-1.95-5.24-5.85,.75-15.25,1.37-30.5,2-45.76,.5-12.08,.95-24.17,1.42-36.26,.42-10.85,.7-21.71,1.32-32.55,.7-12.11,1.79-24.19,2.56-36.29,.23-3.54-.02-7.11-.05-10.67l-1.88-.15c-.47,.94-1.27,1.86-1.36,2.84-1.21,13.89-2.48,27.78-3.4,41.69-.44,6.63,.03,13.32-.23,19.96-.71,18.09-1.65,36.18-2.35,54.27-.14,3.64,.62,7.3,.51,10.94-.52,19.04-4.01,37.84-3.23,57.08,.81,20.2-.8,40.49-.98,60.74-.09,9.62,.02,19.32,1.21,28.84,1.58,12.67,5.01,25.13,6.32,37.82,1.08,10.56,4.52,19.72,11.16,27.69,3.06,3.67,7.03,6.58,10.43,9.99,5.63,5.66,12.04,10.15,19.78,12.16,19.27,4.99,38.58,9.84,57.95,14.43,6.11,1.45,13.06,.61,18.52,3.17,7.03,3.28,14.12,4.04,21.41,5.64,17.84,3.91,34.17,11.82,45.05,27.85,1,1.47,3.22,2.1,4.88,3.11,1.01-2.04,2.92-4.1,2.87-6.11-.13-5.58-1.31-11.12-1.67-16.7-.84-13.27-1.31-26.57-2.2-39.84-.75-11.27-1.86-22.52-2.83-33.77-.27-3.14-.71-6.27-.86-9.41-.64-12.97-1.13-25.94-1.8-38.9-.44-8.46-1.39-16.9-1.59-25.35-.4-16.91-.32-33.84-.69-50.76-.12-5.45-1.1-10.87-1.54-16.31-.47-5.87,1.78-7.97,7.58-7.44,2.48,.23,4.98,.33,7.47,.34,14.41,.05,28.82,0,43.22,.1,12.81,.09,25.63,.55,38.44,.46,11.11-.07,22.22-1.04,33.32-.92,6.75,.07,13.48,1.65,20.25,2.11,1.61,.11,4.39-1.24,4.82-2.53,1.05-3.15-1.89-3.14-4-3.43-.66-.09-1.33-.04-2-.05-12.45-.14-24.9-.35-37.34-.41-11.6-.06-23.19,0-34.79,.06-7.31,.04-14.61,.26-21.92,.25-14.78-.03-29.56-.3-44.33-.2-7.01,.05-9.69-1.76-9.97-8.93-.37-9.56-.98-19.2-.07-28.68,.84-8.77,1.97-17.34,.91-26.22-.89-7.4-.28-14.97-.76-22.44-.78-12.22-2.62-24.42-2.66-36.63-.03-10.77,1.62-21.57,2.84-32.32,1.11-9.78,1.4-9.82,11.16-8.63,1.48,.18,2.99,.16,4.49,.14,7.65-.1,15.3-.47,22.95-.32,15.9,.31,31.78,1.06,47.68,1.29,15.62,.23,31.24-.09,46.86,.13,2.84,.04,5.63,1.65,8.48,2.37,1.63,.41,3.5,1.01,5,.59,3.34-.92,4.72,.01,4.76,3.43,.14,11.45,.22,22.9,.55,34.35,.42,14.6,.58,29.23,1.77,43.78,1.05,12.76,3.6,25.39,5.07,38.12,1.68,14.54,3.03,29.13,4.28,43.72,1.04,12.07,1.58,24.18,2.6,36.25,1.12,13.22,2.61,26.41,3.75,39.63,.28,3.29-.29,6.64-.24,9.96,.3,17.32,.84,34.63,.97,51.95,.1,13.39-3.49,25.46-15.41,33.2-5.82,3.78-12.06,7.08-18.45,9.79-22.91,9.71-47.62,14.28-70.03,25.87-12.22,6.32-25.16,11.28-36.39,19.43-6.29,4.56-13.27,8.61-16.01,16.58-.46,1.33-.12,2.93-.14,4.41,1.41-.62,3.34-.85,4.16-1.93,6.02-7.86,13.78-13.78,21.5-19.76,1.67-1.29,3.47-2.5,5.38-3.38,10.08-4.63,20.11-9.42,30.37-13.64,13.36-5.49,26.67-11.35,40.47-15.45,13.65-4.06,26.71-9.21,38.78-16.49,12.33-7.43,20.25-17.93,19.79-33.45-.31-10.46,.53-20.94,.51-31.41-.04-18.65,1.22-37.33-1.38-55.95-1.72-12.31-2.96-24.68-4.45-37.01-.62-5.09-1.53-10.16-1.96-15.26-1.86-22.34-3.71-44.69-5.3-67.05-.49-6.92-.99-13.63-2.53-20.55-2.31-10.41-2.14-21.43-2.44-32.21-.37-13.27-.05-26.56-.23-39.84-.06-4.48,3.13-9.49-5.86-11.31-6.34-1.28-12.42-3.35-19.06-3-7.65,.4-15.31,.94-22.96,.77-22.07-.5-44.13-1.66-66.21-1.93-21.79-.27-43.59,.46-65.38,.34-28.42-.16-56.84-.67-85.25-1.13-18.1-.29-36.21-.83-54.31-1.07-2.65-.04-5.32,.96-7.98,1.48Zm274.98,227.34c-.23,1.9-.12,3.93-.79,5.65-.51,1.32-1.85,2.62-3.14,3.21-.69,.31-2.58-.65-3.01-1.5-.45-.89-.14-3.16,.44-3.41,3.96-1.7,2.71-5.12,1.73-7.2-2.04-4.31-4.49-8.69-7.76-12.08-9.55-9.89-29.02-10.46-40.36-1.68-6.59,5.11-6.82,5.84-4.11,12.24-1.4,1.69-3.59,3.17-3.69,4.78-.1,1.62,2.07,4.89,2.92,4.79,2.88-.35,6.88-.62,6.87-4.89-.01-3.63,1.73-5.59,4.64-6.93,8.19-3.78,16.17-4.75,23.71,1.7,1.63,1.39,3.8,2.16,5.71,3.21,.22-.57,.44-1.13,.65-1.7-9.12-14.97-22.44-9.67-35.74-6.7,1.07-2.04,2.25-3.95,3.91-4.57,3.99-1.49,8.18-2.53,12.35-3.49,9.37-2.16,21.98,5.4,24.03,14.56,.33,1.46-.99,3.29-1.54,4.95l-.82-.23c-.47,4.87-.93,9.74-1.29,13.52-2.88,1.2-4.9,1.93-6.82,2.88-1.92,.94-3.69,2.2-5.6,3.15-9.88,4.89-20.12,9.17-29.6,14.74-9.78,5.74-17.19,13.95-19.58,25.67-.23,1.1-.73,2.23-1.39,3.14-6.13,8.47-5.65,14.6,1.76,22,1.17,1.17,2.75,2.37,3.1,3.81,1.49,6.08,5.3,6.46,10.4,4.33,.49,1.66,.89,3.01,1.27,4.32,2.41,0,4.54-.18,6.63,.04,2.86,.31,5.72,.79,8.53,1.43,5.55,1.28,11.39-1.43,16.99,1.99,2.24,1.37,6.11,.24,9.22-.02,6.91-.57,13.82-1.23,20.72-2.02,3.75-.43,7.45-1.22,11.18-1.84,1.58-.26,3.78-1.29,4.66-.62,3.77,2.9,7.63,3.3,12.18,2.52,2.45-.42,5.42,.24,7.73,1.32,4.7,2.2,8.8,.02,13.02-1.14,1.04-.29,1.65-2.13,2.46-3.26-1.29-.41-2.57-1.12-3.87-1.18-4.42-.19-8.87,0-13.28-.3-1.42-.1-2.78-1.26-4.16-1.93,.74-1.4,1.2-3.09,2.27-4.15,2.29-2.27,5.81-3.74,7.19-6.39,2.64-5.08,4.44-10.66,6.01-16.2,1.13-4-1.59-6.45-5.24-5.85-3.93,.65-8.06,2.08-11.31,4.32-4.23,2.92-7.6,2.63-11.16-.45-3.52-3.05-6.75-6.45-10.43-9.28-13.84-10.65-22.91-10.3-35.63,.16-7.62,6.27-14.87,13.24-25.06,15.82-11.07,2.8-11.82,2.29-10.42-8.74,1.09-8.64,6.97-14.04,13.58-17.33,11.46-5.7,21.78-12.6,30.95-21.41,4.63-4.45,6.89-12.07,15.32-11.52,1.61,.11,3.26,.07,4.85-.13,2.43-.32,4.89-.68,7.2-1.43,.42-.13,.21-2.21,.29-3.39-5.18,.43-5.33-4.45-8.65-7.3Zm-191.33-111.59c1.4,1.18,2.09,2.22,2.96,2.41,3.76,.8,3.77,2.71,2.57,5.86-.9,2.35-1.03,5.09-1.07,7.66-.04,3.07,.39,6.15,.61,9.23-3.22,.2-6.46,.27-9.65,.67-.88,.11-1.64,1.16-2.46,1.79,.71,.59,1.6,1.82,2.11,1.68,3.81-1.04,7.36-1.36,10.62,1.53,.34,.3,1.56-.21,2.29-.53,4.38-1.93,5.09-5.45,3.42-10.69-1.22-3.81-1.34-8.01-1.68-12.05-.08-.93,.8-2.61,1.56-2.83,4.05-1.15,8.17-2.48,12.33-2.75,6.95-.46,13.96-.1,20.93-.27,1.57-.04,3.38-.51,4.6-1.42,.76-.57,1.03-2.43,.76-3.52-.17-.67-1.81-1.41-2.75-1.36-9.1,.45-18.19,1.12-27.3,1.55-1.7,.08-3.44-.65-5.16-1.01,.51-1.61,.68-3.45,1.58-4.8,5.31-7.98,4.99-22.21-.83-29-6.23-7.27-6.35-8.3-.8-16.12,3.07-4.33,4.44-9.33,1.49-13.53-3.29-4.69-4.83-8.74-1.86-13.91,.17-.29-.52-1.06-1.18-2.32-2.67,2.47-5.03,4.66-7.58,7.02-3.92-3.47-8.54-5.89-13.95-4.17-4.2,1.34-8.19,3.39-12.19,5.3-2.87,1.37-4.51,.96-6.63-1.8-1.78-2.32-5.04-3.89-7.96-4.74-1.17-.34-3.73,1.82-4.61,3.42-.77,1.41-.72,4.85,.08,5.28,5.29,2.8,4.14,6.64,2.64,10.93-2.47,7.02-3.04,13.67,4.03,18.81,.59,.43,.22,3.04-.46,4.18-3.33,5.55-6.99,10.91-10.39,16.42-2.36,3.83-3.33,7.78-1.46,12.33,1.45,3.51,2.1,7.34,3.02,10.74-4.64,0-8.44-.31-12.14,.17-1.25,.16-2.23,2.33-3.33,3.58,1.31,.61,2.59,1.61,3.95,1.76,6.19,.67,12.4,1.12,18.6,1.57,1.01,.07,2.04-.27,4.14-.58-2.7-5.71-5.11-10.65-7.38-15.66-2.92-6.46-3.67-12.85,1.47-18.67,1.02-1.16,2.4-2,3.62-2.99,.64,1.41,1.57,2.76,1.87,4.24,.92,4.54,1.6,9.13,2.57,14.88,1.15-1.84,1.96-2.53,1.91-3.15-.47-6.08-.43-12.32-1.88-18.17-1.02-4.11-.57-6.36,3.19-7.96,.98-.42,1.93-.91,3.74-1.76-2.57-1.91-4.45-3.43-6.47-4.78-6.8-4.54-6.66-18.84,.3-22.48,3.39-1.78,6.77-3.69,10.36-4.94,6.73-2.34,13.6-5.1,20.13,.92,.88,.81,2.94,.34,5.51,.55l-1.01,5.51-6.22-1.83-1.53,2.23c1.45,2.29,2.58,3.75,3.27,5.4,.16,.37-1.67,2.04-1.76,1.98-1.66-1.21-3.19-2.6-5-4.15-5.75,3.92-6.31-3.19-10.13-6.2l.74,13.22-8.33-5.37c2.07-2.97,3.71-5.34,5.35-7.7l-2.16-1.63c-2.21,2.79-5.89,5.4-6.25,8.41-.41,3.42,2.8,6.43,6.95,7.29,3.43,.71,5.64,2.52,5.23,6.62-.11,1.1,1.27,2.35,1.97,3.53,1.06-.89,2.88-1.67,3.03-2.7,.55-3.74,.54-7.57,.79-12.4,1.36,1.02,3.27,2.07,4.68,3.59,2.87,3.08,4.21,2.99,6.12-.66,1.44-2.75,3.09-5.38,4.85-8.41,3.43,3.55,6.05,6.71,2.65,11.33-1.86,2.53-4.09,4.92-5.36,7.73-1.19,2.64-1.46,5.73-1.92,8.66-.38,2.4,.29,5.26-.78,7.21-4,7.3-1.43,13.85,1.57,20.44,.2,.44,1.33,.46,2.31,.76,0-1.7,.03-3,0-4.28-.14-4.98-.42-9.96-.35-14.94,.01-1.01,1.25-2.7,2.08-2.8,.95-.12,2.5,.93,3.07,1.89,7.41,12.44,3,26.16-11.66,30.81Zm163.53,.61c-2.39-.35-4.2-.62-6-.88,.06,1.75-.46,3.81,.29,5.2,2.5,4.67,5.77,2.78,8.99,.79v-4.05c3.3,.66,6.65,2.49,8.69,1.54,7.54-3.54,15.08-3.11,22.71-1.4,2.84,.64,5.42,2.44,8.15,3.64,1.41,.62,3.26,1.85,4.26,1.39,1.04-.48,1.74-2.63,1.82-4.1,.23-3.95-.03-7.93,.06-11.89,.19-8.8,1.06-17.63,.56-26.39-.6-10.42-2.31-20.77-3.65-31.14-.32-2.51-1.08-4.96-1.63-7.43l-1.42,1.47c-2.47-.95-4.86-2.26-7.41-2.77-6.23-1.24-12.84-3.77-18.72-2.68-6.92,1.28-13.27,5.76-19.79,9.02-3.9,1.95-5.22,5.32-4.54,9.58,1.4,8.8,2.96,17.58,4.06,26.41,1.42,11.43,2.46,22.91,3.59,33.7Zm-12.49-64.35c.46-4.13-4.01-9.86-8.07-11.17-9.89-3.2-19.35-1.93-28.33,3.12-3.19,1.79-5.77,9.41-5.15,12.62,1.7,8.72,3.39,17.48,4.39,26.31,.89,7.9,.79,15.91,1.23,23.86,.36,6.41,.74,12.82,1.5,19.18,.1,.83,2.66,2.14,3.85,1.93,8.52-1.5,16.96-2.83,25.22,1.15,.57,.28,1.36,.48,1.94,.32,4.87-1.31,8.51,.84,12.27,3.63,1.5,1.11,4.46,1.33,6.3,.67,3.99-1.43,7.73-3.61,11.49-5.62,4-2.13,8.01-2.92,12.48-1.44,3.6,1.2,7.36,1.93,11.05,2.85,2.8,.7,5.27,.7,6.22-3.25-10.26-4.66-20.21-5.88-31.15-1.95-5.29,1.9-10.42,7.33-17.7,1.98-4.22-3.1-10.87-3.01-16.49-4.03-2.18-.4-4.83-.57-6.72,.33-5.51,2.6-9.89-.92-15.03-1.76,3.34-1.05,7.19-1.21,4.77-6.45-4.33,.59-5.61-2.01-5.7-5.93-.14-6.15-1.05-12.35-.55-18.44,.99-12.13-.73-23.9-3.6-35.54-1.09-4.43,.47-6.98,4.25-8.14,9.11-2.79,18.2-4.38,26.28,2.97,1.28,1.16,3.12,1.69,5.26,2.8ZM122.75,175.07l.28-2.27c-1.65-.5-3.31-.95-4.93-1.52-2.5-.88-7.07-1.78-7.09-2.77-.11-4.42-.4-10.29,2.16-12.96,3.22-3.35,1.58-4.17,.01-6.62-1.14-1.78-1.22-4.25-1.76-6.42-.48-1.91-.94-3.82-1.41-5.74-1.41,1.75-3.92,3.43-4.03,5.25-.56,9.21-.63,18.47-.52,27.7,.02,1.79,1.46,4.98,2.52,5.1,4.87,.55,9.84,.24,14.77,.24Zm138.86-26.52c2.53-.95,4.4-2.35,6.11-2.17,5.3,.55,10.52,1.87,15.82,2.47,1.17,.13,2.53-1.43,3.81-2.21-.9-.93-1.73-2.58-2.7-2.68-4.92-.48-9.88-.68-14.83-.73-3.27-.04-6.55,.33-10.58,.56l2.39,4.76Zm45,120.9c-1.69-4.08-.07-9.38-5.76-10.11-2.71-.35-5.82,1.11-8.45,2.36-.67,.32-.77,4.07-.17,4.38,2.14,1.1,4.67,1.43,7.08,1.97,1.99,.45,4,.77,7.31,1.4Zm-47.08,88.95c-.32-.47-.63-.93-.95-1.4-3.31-1.64-6.54-3.51-9.98-4.82-1.44-.55-3.54-.36-4.92,.33-.64,.32-.85,3.51-.27,3.9,2.63,1.75,5.51,3.69,8.51,4.14,2.37,.35,5.06-1.36,7.6-2.16ZM130.7,152.18c-1.79-2.27-2.75-3.48-3.71-4.7l-1.85-2.32c2.15-2.15,4.31-4.31,6.46-6.46,.02,1.13-1.56,1.34-2.65,2.18-2.29,1.77-4.59,3.68-6.32,5.95-.57,.74,.16,3.57,1.08,4.1,1.57,.91,3.76,.75,7,1.24Zm130.48-53.14c-.62-.19-1.25-.39-1.87-.58-.84,2.37-2.35,4.77-2.25,7.1,.05,1.21,2.95,2.29,4.57,3.43l1.09-1.1-1.53-8.84Zm24.37,8.33c-2.19-2.28-3.7-3.85-5.2-5.42-.85,1.24-2.67,2.91-2.36,3.65,.66,1.52,2.33,2.78,3.86,3.65,.52,.29,1.89-.91,3.7-1.87Zm1.43,13.14c-3.28-1.52-5.51-2.56-7.75-3.6-.37,1.15-1.4,2.92-1,3.34,1.95,2.06,4.29,3.63,8.75,.25Zm-24.26-4.98l-1.91-.67c-.75,1.56-2.11,3.15-2.06,4.68,.04,1.11,1.94,2.17,3.97,4.21v-8.22Zm8.63-26.75c-2.35-1.91-3.51-3.29-4.98-3.81-.5-.17-1.77,1.85-2.68,2.87,.96,.85,1.82,2.18,2.91,2.42,1.05,.23,2.35-.67,4.75-1.48Zm-10.86,1.15c-.9-3.13-1.56-5.41-2.35-8.13-4.19,4.85-3.85,6.21,2.35,8.13Zm9.41,11.98l-2.76-.34c-.21,1.78-.62,3.57-.49,5.32,.03,.4,1.91,.66,2.94,.98,.1-1.99,.21-3.97,.31-5.96Zm-.9,29.33c-1.83-1.53-2.86-2.81-4.18-3.27-.48-.17-1.65,1.61-2.5,2.49,1.16,.9,2.22,2.04,3.53,2.59,.52,.22,1.59-.87,3.15-1.81Zm6.75-1.98c-1.1,1.67-2.51,3.04-2.25,3.57,.54,1.08,1.88,2.07,3.08,2.4,.67,.18,1.72-1.05,2.6-1.65-.96-1.21-1.92-2.41-3.43-4.32Zm4.2-39.32c0-.77,0-1.55,0-2.32-1.56-.17-3.18-.62-4.66-.34-.46,.09-.56,2.14-.82,3.29,1.83-.21,3.65-.42,5.48-.63Z"/><path d="M48.7,30.51c2.66-.52,5.33-1.52,7.98-1.48,18.11,.24,36.21,.78,54.31,1.07,28.42,.46,56.83,.97,85.25,1.13,21.79,.12,43.59-.61,65.38-.34,22.07,.27,44.14,1.43,66.21,1.93,7.64,.17,15.31-.37,22.96-.77,6.64-.35,12.73,1.72,19.06,3,8.99,1.82,5.8,6.83,5.86,11.31,.18,13.28-.14,26.57,.23,39.84,.3,10.78,.13,21.8,2.44,32.21,1.53,6.92,2.03,13.63,2.53,20.55,1.59,22.36,3.44,44.71,5.3,67.05,.43,5.11,1.34,10.17,1.96,15.26,1.49,12.34,2.73,24.71,4.45,37.01,2.6,18.61,1.35,37.29,1.38,55.95,.02,10.47-.82,20.96-.51,31.41,.46,15.52-7.46,26.02-19.79,33.45-12.08,7.28-25.13,12.43-38.78,16.49-13.8,4.1-27.11,9.97-40.47,15.45-10.26,4.21-20.28,9-30.37,13.64-1.91,.88-3.71,2.09-5.38,3.38-7.71,5.98-15.48,11.89-21.5,19.76-.82,1.07-2.74,1.31-4.16,1.93,.03-1.48-.31-3.08,.14-4.41,2.74-7.98,9.72-12.02,16.01-16.58,11.24-8.15,24.17-13.11,36.39-19.43,22.4-11.59,47.12-16.16,70.03-25.87,6.39-2.71,12.63-6.01,18.45-9.79,11.92-7.75,15.5-19.81,15.41-33.2-.12-17.32-.67-34.63-.97-51.95-.06-3.32,.52-6.67,.24-9.96-1.14-13.22-2.64-26.41-3.75-39.63-1.02-12.07-1.56-24.18-2.6-36.25-1.25-14.59-2.6-29.18-4.28-43.72-1.47-12.74-4.02-25.36-5.07-38.12-1.19-14.54-1.35-29.18-1.77-43.78-.33-11.44-.41-22.9-.55-34.35-.04-3.41-1.42-4.35-4.76-3.43-1.5,.42-3.37-.18-5-.59-2.85-.72-5.65-2.33-8.48-2.37-15.62-.23-31.24,.09-46.86-.13-15.9-.23-31.78-.98-47.68-1.29-7.64-.15-15.3,.21-22.95,.32-1.5,.02-3.01,.04-4.49-.14-9.76-1.19-10.05-1.14-11.16,8.63-1.22,10.75-2.87,21.55-2.84,32.32,.04,12.21,1.88,24.41,2.66,36.63,.48,7.47-.13,15.03,.76,22.44,1.06,8.87-.07,17.45-.91,26.22-.9,9.47-.3,19.12,.07,28.68,.28,7.18,2.95,8.98,9.97,8.93,14.78-.1,29.56,.17,44.33,.2,7.31,.01,14.61-.21,21.92-.25,11.6-.06,23.19-.12,34.79-.06,12.45,.06,24.9,.27,37.34,.41,.67,0,1.34-.04,2,.05,2.12,.28,5.06,.28,4,3.43-.43,1.29-3.21,2.64-4.82,2.53-6.77-.45-13.5-2.03-20.25-2.11-11.1-.12-22.21,.85-33.32,.92-12.81,.09-25.63-.37-38.44-.46-14.41-.1-28.82-.04-43.22-.1-2.49,0-4.99-.12-7.47-.34-5.8-.53-8.06,1.57-7.58,7.44,.44,5.45,1.42,10.87,1.54,16.31,.37,16.92,.29,33.84,.69,50.76,.2,8.46,1.15,16.9,1.59,25.35,.67,12.96,1.16,25.94,1.8,38.9,.15,3.14,.59,6.27,.86,9.41,.97,11.26,2.08,22.5,2.83,33.77,.88,13.27,1.36,26.57,2.2,39.84,.36,5.58,1.53,11.12,1.67,16.7,.05,2.01-1.86,4.07-2.87,6.11-1.66-1.02-3.89-1.65-4.88-3.11-10.88-16.02-27.21-23.93-45.05-27.85-7.29-1.6-14.38-2.35-21.41-5.64-5.47-2.55-12.42-1.72-18.52-3.17-19.37-4.59-38.68-9.44-57.95-14.43-7.74-2.01-14.15-6.5-19.78-12.16-3.4-3.41-7.37-6.32-10.43-9.99-6.64-7.97-10.07-17.13-11.16-27.69-1.3-12.69-4.74-25.15-6.32-37.82-1.19-9.52-1.29-19.23-1.21-28.84,.19-20.25,1.8-40.54,.98-60.74-.78-19.24,2.71-38.03,3.23-57.08,.1-3.64-.66-7.31-.51-10.94,.7-18.09,1.64-36.18,2.35-54.27,.26-6.65-.21-13.33,.23-19.96,.92-13.91,2.19-27.8,3.4-41.69,.09-.98,.89-1.89,1.36-2.84l1.88,.15c.03,3.56,.28,7.13,.05,10.67-.78,12.1-1.86,24.19-2.56,36.29-.63,10.84-.9,21.7-1.32,32.55-.47,12.09-.92,24.17-1.42,36.26-.63,15.25-1.25,30.51-2,45.76-.19,3.91,.94,5.92,5.24,5.85,8.32-.13,16.66-.15,24.97,.16,7.24,.28,14.46,1.2,21.7,1.63,14.4,.86,28.79,1.99,43.2,2.24,20.41,.35,40.84,.07,61.26-.07,5.65-.04,11.3-.57,16.95-.8,3.5-.14,4.93-1.64,4.83-5.34-.35-12.45-.43-24.9-.56-37.35-.15-13.6,.62-27.28-.56-40.79-2.28-25.95-2.48-51.76,1.31-77.55,.56-3.78-1.22-4.89-4.43-4.78-14.11,.45-28.23,1.35-42.34,1.3-11.4-.04-22.79-1.47-34.19-1.78-13.57-.37-27.15-.12-40.72-.28-11.45-.14-22.89-.46-34.33-.76-3.66-.1-7.32-.4-10.98-.61l-.28-1.79ZM224.64,434.79c.12-2.59,.27-3.7,.2-4.81-.76-11.43-1.66-22.86-2.32-34.3-1.29-22.37-2.45-44.76-3.68-67.13-.75-13.61-1.63-27.22-2.28-40.84-.7-14.64-2.52-29.4-1.39-43.92,.89-11.47-1.06-22.5-1.27-33.74-.08-4.3-2.2-6.25-7.12-6-15.28,.8-30.59,1.2-45.89,1.37-7.93,.09-15.87-.71-23.81-.97-17.27-.55-34.55-.89-51.82-1.54-12.44-.47-24.87-1.33-37.31-2-9.28-.5-11.39,1.64-10.36,10.42,.14,1.16,.23,2.33,.2,3.49-.3,15.76-.65,31.52-.93,47.28-.1,5.63,1.07,11.56-.31,16.84-2.22,8.46,1.13,16.29,1.1,24.44-.01,3.5,2.38,6.95,2.83,10.53,1.34,10.59,.19,21.59,5.51,31.5,.28,.51-.07,1.32,.06,1.96,.74,3.67,1.12,7.47,2.39,10.95,3.04,8.32,10.03,13.66,16.37,19.07,5.97,5.1,12.77,10.16,20.09,12.54,16.22,5.29,32.89,9.33,49.56,13.06,17.36,3.89,35.08,6.21,52.33,10.46,7.83,1.93,15.09,6.55,22.29,10.54,5.13,2.85,9.72,6.68,15.59,10.8Z"/><path d="M323.68,257.86c3.31,2.86,3.47,7.73,8.65,7.3-.08,1.18,.13,3.26-.29,3.39-2.31,.75-4.77,1.11-7.2,1.43-1.6,.21-3.24,.24-4.85,.13-8.43-.55-10.68,7.07-15.32,11.52-9.17,8.81-19.5,15.71-30.95,21.41-6.61,3.29-12.49,8.69-13.58,17.33-1.4,11.03-.65,11.54,10.42,8.74,10.19-2.58,17.44-9.55,25.06-15.82,12.72-10.46,21.79-10.81,35.63-.16,3.68,2.83,6.91,6.24,10.43,9.28,3.56,3.08,6.94,3.36,11.16,.45,3.25-2.24,7.38-3.68,11.31-4.32,3.65-.6,6.37,1.84,5.24,5.85-1.57,5.54-3.37,11.12-6.01,16.2-1.38,2.65-4.9,4.13-7.19,6.39-1.07,1.06-1.53,2.75-2.27,4.15,1.39,.67,2.74,1.83,4.16,1.93,4.41,.3,8.86,.11,13.28,.3,1.31,.06,2.58,.77,3.87,1.18-.81,1.13-1.42,2.97-2.46,3.26-4.21,1.15-8.32,3.34-13.02,1.14-2.31-1.08-5.27-1.74-7.73-1.32-4.56,.78-8.41,.38-12.18-2.52-.87-.67-3.07,.35-4.66,.62-3.73,.62-7.43,1.41-11.18,1.84-6.89,.79-13.8,1.45-20.72,2.02-3.11,.26-6.98,1.39-9.22,.02-5.6-3.42-11.44-.71-16.99-1.99-2.81-.65-5.67-1.13-8.53-1.43-2.09-.22-4.22-.04-6.63-.04-.38-1.31-.78-2.66-1.27-4.32-5.1,2.13-8.9,1.75-10.4-4.33-.35-1.44-1.94-2.65-3.1-3.81-7.41-7.41-7.89-13.54-1.76-22,.66-.91,1.16-2.04,1.39-3.14,2.4-11.72,9.81-19.92,19.58-25.67,9.48-5.57,19.72-9.85,29.6-14.74,1.92-.95,3.68-2.2,5.6-3.15,1.92-.94,3.94-1.67,6.82-2.88,.36-3.78,.83-8.65,1.29-13.52l.82,.23c.56-1.66,1.87-3.49,1.54-4.95-2.06-9.17-14.66-16.72-24.03-14.56-4.17,.96-8.35,2-12.35,3.49-1.66,.62-2.84,2.52-3.91,4.57,13.3-2.96,26.61-8.26,35.74,6.7-.22,.57-.44,1.13-.65,1.7-1.92-1.05-4.08-1.82-5.71-3.21-7.54-6.45-15.51-5.48-23.71-1.7-2.91,1.34-4.65,3.3-4.64,6.93,.01,4.27-3.99,4.54-6.87,4.89-.85,.1-3.02-3.16-2.92-4.79,.1-1.61,2.29-3.09,3.69-4.78-2.71-6.4-2.48-7.13,4.11-12.24,11.33-8.78,30.81-8.22,40.36,1.68,3.27,3.39,5.73,7.78,7.76,12.08,.98,2.08,2.24,5.5-1.73,7.2-.58,.25-.89,2.52-.44,3.41,.43,.85,2.32,1.81,3.01,1.5,1.3-.59,2.63-1.89,3.14-3.21,.67-1.73,.57-3.75,.79-5.65Zm25.64,92.2c3.61-4.64,8.28-10.03,12.18-15.92,1.61-2.44,3.14-7.37,1.94-8.73-2.79-3.17-6.23,.15-8.57,2.15-4.43,3.81-9.06,3.63-13.37,.92-7.08-4.47-13.86-9.44-20.54-14.49-5.76-4.36-14.87-4.54-20.23,.14-8.61,7.52-16.88,15.4-28.4,18.65-6.02,1.7-11.58,5.37-18.2,2.51-.69-.3-1.74-.27-2.44,.04-1.09,.47-2.45,1.12-2.88,2.06-.31,.69,.41,2.29,1.16,2.94,5.85,5.16,11.75,9.88,20.13,10.87,7.33,.87,14.44,3.6,21.98,1.35,1.18-.35,2.98-.42,3.85,.24,5.08,3.86,10.46,1.99,15.81,1.21,4.08-.59,8.16-1.2,12.25-1.68,4.11-.48,8.24-.84,12.36-1.21,4.11-.37,8.22-.67,12.99-1.06Zm-95.92-19.58c.43,.12,.86,.24,1.28,.37,.6-1.91,2.08-4.08,1.62-5.7-1.31-4.58-.63-8.52,2.19-12.13,1.86-2.38,3.75-4.81,6.02-6.75,3.59-3.06,7.41-5.88,11.31-8.54,5.07-3.46,10.31-6.66,15.48-9.98-.2-.48-.4-.95-.61-1.43-3.8,1.01-8.05,1.27-11.32,3.2-6.78,3.98-13.09,8.79-19.48,13.41-1.27,.92-2.1,2.48-3.04,3.82-5.14,7.33-4.75,15.47-3.46,23.74Z"/><path d="M132.35,146.27c14.67-4.65,19.07-18.37,11.66-30.81-.57-.97-2.12-2.02-3.07-1.89-.83,.11-2.07,1.8-2.08,2.8-.07,4.98,.21,9.96,.35,14.94,.04,1.29,0,2.58,0,4.28-.98-.3-2.11-.32-2.31-.76-3-6.59-5.56-13.14-1.57-20.44,1.07-1.96,.4-4.81,.78-7.21,.46-2.93,.72-6.02,1.92-8.66,1.27-2.81,3.49-5.2,5.36-7.73,3.4-4.62,.78-7.78-2.65-11.33-1.76,3.03-3.41,5.66-4.85,8.41-1.91,3.65-3.26,3.74-6.12,.66-1.41-1.52-3.32-2.57-4.68-3.59-.25,4.83-.24,8.66-.79,12.4-.15,1.03-1.97,1.81-3.03,2.7-.7-1.18-2.08-2.43-1.97-3.53,.41-4.1-1.8-5.91-5.23-6.62-4.15-.86-7.36-3.87-6.95-7.29,.36-3.01,4.04-5.62,6.25-8.41l2.16,1.63c-1.64,2.36-3.29,4.73-5.35,7.7l8.33,5.37-.74-13.22c3.82,3.02,4.38,10.13,10.13,6.2,1.8,1.56,3.34,2.94,5,4.15,.09,.06,1.91-1.61,1.76-1.98-.7-1.64-1.82-3.11-3.27-5.4l1.53-2.23,6.22,1.83,1.01-5.51c-2.57-.21-4.63,.26-5.51-.55-6.53-6.02-13.4-3.26-20.13-.92-3.59,1.25-6.97,3.17-10.36,4.94-6.96,3.64-7.1,17.95-.3,22.48,2.01,1.34,3.9,2.87,6.47,4.78-1.8,.85-2.75,1.34-3.74,1.76-3.76,1.61-4.2,3.85-3.19,7.96,1.45,5.86,1.41,12.09,1.88,18.17,.05,.62-.76,1.31-1.91,3.15-.97-5.75-1.65-10.34-2.57-14.88-.3-1.48-1.23-2.83-1.87-4.24-1.22,.99-2.59,1.83-3.62,2.99-5.14,5.82-4.39,12.2-1.47,18.67,2.26,5.01,4.68,9.96,7.38,15.66-2.1,.31-3.14,.65-4.14,.58-6.21-.45-12.42-.9-18.6-1.57-1.36-.15-2.64-1.15-3.95-1.76,1.1-1.25,2.09-3.42,3.33-3.58,3.7-.48,7.51-.17,12.14-.17-.93-3.4-1.58-7.23-3.02-10.74-1.87-4.54-.9-8.5,1.46-12.33,3.4-5.51,7.06-10.86,10.39-16.42,.68-1.14,1.05-3.76,.46-4.18-7.06-5.14-6.5-11.79-4.03-18.81,1.51-4.29,2.66-8.13-2.64-10.93-.81-.43-.85-3.87-.08-5.28,.87-1.6,3.44-3.76,4.61-3.42,2.91,.85,6.18,2.42,7.96,4.74,2.12,2.76,3.76,3.17,6.63,1.8,4-1.91,7.99-3.97,12.19-5.3,5.42-1.72,10.03,.7,13.95,4.17,2.55-2.37,4.91-4.55,7.58-7.02,.66,1.25,1.35,2.03,1.18,2.32-2.97,5.17-1.43,9.22,1.86,13.91,2.95,4.2,1.58,9.2-1.49,13.53-5.55,7.82-5.43,8.85,.8,16.12,5.81,6.79,6.14,21.02,.83,29-.9,1.35-1.07,3.19-1.58,4.8,1.72,.36,3.46,1.09,5.16,1.01,9.1-.43,18.19-1.1,27.3-1.55,.94-.05,2.58,.7,2.75,1.36,.27,1.09,0,2.95-.76,3.52-1.22,.91-3.03,1.38-4.6,1.42-6.98,.17-13.98-.19-20.93,.27-4.16,.28-8.28,1.6-12.33,2.75-.76,.22-1.63,1.9-1.56,2.83,.33,4.05,.46,8.24,1.68,12.05,1.68,5.24,.97,8.75-3.42,10.69-.73,.32-1.95,.84-2.29,.53-3.25-2.9-6.81-2.57-10.62-1.53-.51,.14-1.4-1.09-2.11-1.68,.82-.62,1.58-1.68,2.46-1.79,3.2-.39,6.43-.47,9.65-.67-.22-3.08-.65-6.15-.61-9.23,.03-2.57,.17-5.31,1.07-7.66,1.21-3.15,1.19-5.06-2.57-5.86-.87-.19-1.56-1.23-2.96-2.41Z"/><path d="M295.87,146.88c-1.13-10.8-2.17-22.28-3.59-33.7-1.1-8.84-2.66-17.61-4.06-26.41-.68-4.26,.64-7.63,4.54-9.58,6.52-3.25,12.87-7.73,19.79-9.02,5.88-1.09,12.49,1.44,18.72,2.68,2.55,.51,4.95,1.82,7.41,2.77l1.42-1.47c.56,2.48,1.31,4.93,1.63,7.43,1.34,10.37,3.05,20.72,3.65,31.14,.51,8.75-.37,17.59-.56,26.39-.08,3.96,.17,7.94-.06,11.89-.09,1.47-.78,3.62-1.82,4.1-1,.46-2.84-.77-4.26-1.39-2.73-1.2-5.31-3-8.15-3.64-7.63-1.72-15.17-2.14-22.71,1.4-2.04,.96-5.39-.87-8.69-1.54v4.05c-3.22,1.99-6.49,3.88-8.99-.79-.74-1.39-.23-3.45-.29-5.2,1.8,.27,3.6,.53,6,.88Zm3.69-20.1h-.04c0,3-.21,6.02,.06,8.99,.26,2.78,.55,5.75,1.76,8.17,.68,1.36,3.74,2.93,4.89,2.44,8.88-3.78,17.68-6.8,27.32-2.72,1.2,.51,2.6,.6,3.92,.72,3,.28,4.26-.86,3.61-4.09-.52-2.58-.99-5.35-.57-7.89,2.66-16.34-1.98-32.05-4.14-47.93-.93-6.87-6.77-10.01-13.06-11.4-8.55-1.89-16.42,.28-23.88,4.68-3.79,2.24-4.48,4.83-3.58,9.14,1.71,8.22,2.76,16.61,3.62,24.97,.5,4.93,.09,9.95,.09,14.93Z"/><path d="M283.39,82.52c-2.14-1.11-3.98-1.65-5.26-2.8-8.08-7.34-17.17-5.75-26.28-2.97-3.78,1.16-5.34,3.71-4.25,8.14,2.88,11.64,4.6,23.41,3.6,35.54-.5,6.09,.41,12.28,.55,18.44,.09,3.92,1.37,6.52,5.7,5.93,2.42,5.24-1.43,5.4-4.77,6.45,5.13,.85,9.51,4.37,15.03,1.76,1.89-.89,4.55-.72,6.72-.33,5.62,1.02,12.26,.93,16.49,4.03,7.28,5.34,12.41-.08,17.7-1.98,10.94-3.93,20.89-2.71,31.15,1.95-.96,3.95-3.43,3.95-6.22,3.25-3.69-.92-7.45-1.65-11.05-2.85-4.47-1.49-8.48-.7-12.48,1.44-3.77,2.01-7.5,4.19-11.49,5.62-1.84,.66-4.8,.44-6.3-.67-3.77-2.8-7.4-4.94-12.27-3.63-.58,.16-1.36-.05-1.94-.32-8.26-3.98-16.7-2.65-25.22-1.15-1.19,.21-3.75-1.1-3.85-1.93-.76-6.36-1.14-12.78-1.5-19.18-.44-7.95-.34-15.96-1.23-23.86-.99-8.82-2.68-17.58-4.39-26.31-.63-3.21,1.96-10.82,5.15-12.62,8.99-5.05,18.44-6.32,28.33-3.12,4.06,1.31,8.52,7.04,8.07,11.17Z"/><path d="M122.75,175.07c-4.93,0-9.9,.31-14.77-.24-1.06-.12-2.5-3.31-2.52-5.1-.11-9.23-.04-18.49,.52-27.7,.11-1.83,2.62-3.5,4.03-5.25,.47,1.91,.93,3.83,1.41,5.74,.54,2.17,.62,4.64,1.76,6.42,1.57,2.45,3.2,3.27-.01,6.62-2.56,2.67-2.28,8.54-2.16,12.96,.02,.99,4.59,1.89,7.09,2.77,1.62,.57,3.29,1.02,4.93,1.52l-.28,2.27Z"/><path d="M261.61,148.55l-2.39-4.76c4.03-.23,7.31-.6,10.58-.56,4.95,.06,9.91,.25,14.83,.73,.98,.1,1.81,1.75,2.7,2.68-1.27,.78-2.64,2.35-3.81,2.21-5.3-.61-10.52-1.93-15.82-2.47-1.71-.18-3.58,1.22-6.11,2.17Z"/><path d="M306.61,269.45c-3.31-.63-5.32-.95-7.31-1.4-2.4-.54-4.94-.88-7.08-1.97-.6-.31-.49-4.06,.17-4.38,2.64-1.25,5.74-2.71,8.45-2.36,5.69,.73,4.06,6.03,5.76,10.11Z"/><path d="M259.53,358.41c-2.55,.8-5.23,2.51-7.6,2.16-3-.45-5.88-2.39-8.51-4.14-.59-.39-.37-3.59,.27-3.9,1.38-.69,3.48-.89,4.92-.33,3.44,1.31,6.67,3.18,9.98,4.82,.32,.47,.63,.93,.95,1.4Z"/><path d="M130.7,152.18c-3.24-.49-5.42-.34-7-1.24-.91-.53-1.64-3.36-1.08-4.1,1.73-2.28,4.03-4.18,6.32-5.95,1.09-.84,2.67-1.05,2.65-2.18-2.15,2.15-4.31,4.31-6.46,6.46l1.85,2.32c.96,1.21,1.92,2.43,3.71,4.7Z"/><path d="M261.17,99.05l1.53,8.84-1.09,1.1c-1.62-1.14-4.52-2.22-4.57-3.43-.1-2.33,1.41-4.73,2.25-7.1,.62,.19,1.25,.39,1.87,.58Z"/><path d="M285.54,107.37c-1.81,.96-3.18,2.17-3.7,1.87-1.53-.87-3.2-2.13-3.86-3.65-.32-.74,1.5-2.4,2.36-3.65,1.51,1.57,3.02,3.14,5.2,5.42Z"/><path d="M286.97,120.51c-4.46,3.38-6.81,1.81-8.75-.25-.4-.42,.63-2.19,1-3.34,2.23,1.04,4.47,2.07,7.75,3.6Z"/><path d="M262.71,115.53v8.22c-2.03-2.05-3.94-3.1-3.97-4.21-.05-1.54,1.31-3.12,2.06-4.68l1.91,.67Z"/><path d="M271.34,88.78c-2.4,.81-3.7,1.71-4.75,1.48-1.1-.24-1.95-1.57-2.91-2.42,.92-1.02,2.18-3.04,2.68-2.87,1.47,.51,2.63,1.9,4.98,3.81Z"/><path d="M260.48,89.93c-6.21-1.92-6.54-3.28-2.35-8.13,.79,2.73,1.45,5.01,2.35,8.13Z"/><path d="M269.89,101.92c-.1,1.99-.21,3.97-.31,5.96-1.03-.32-2.91-.58-2.94-.98-.13-1.75,.28-3.54,.49-5.32l2.76,.34Z"/><path d="M268.99,131.25c-1.56,.94-2.63,2.03-3.15,1.81-1.31-.55-2.37-1.69-3.53-2.59,.85-.89,2.02-2.66,2.5-2.49,1.32,.46,2.35,1.74,4.18,3.27Z"/><path d="M275.75,129.26c1.51,1.9,2.47,3.11,3.43,4.32-.88,.59-1.93,1.83-2.6,1.65-1.2-.33-2.55-1.31-3.08-2.4-.26-.53,1.14-1.89,2.25-3.57Z"/><path d="M279.95,89.94c-1.83,.21-3.65,.42-5.48,.63,.26-1.15,.36-3.2,.82-3.29,1.48-.28,3.09,.17,4.66,.34,0,.77,0,1.55,0,2.32Z"/><path class="cls-1" d="M224.64,434.79c-5.87-4.12-10.45-7.95-15.59-10.8-7.19-3.99-14.46-8.61-22.29-10.54-17.25-4.25-34.98-6.57-52.33-10.46-16.67-3.74-33.34-7.77-49.56-13.06-7.31-2.39-14.12-7.44-20.09-12.54-6.33-5.41-13.33-10.76-16.37-19.07-1.27-3.48-1.65-7.28-2.39-10.95-.13-.64,.22-1.45-.06-1.96-5.32-9.91-4.17-20.9-5.51-31.5-.45-3.58-2.84-7.02-2.83-10.53,.03-8.15-3.31-15.97-1.1-24.44,1.38-5.28,.21-11.2,.31-16.84,.28-15.76,.63-31.52,.93-47.28,.02-1.16-.07-2.34-.2-3.49-1.03-8.78,1.08-10.92,10.36-10.42,12.44,.67,24.87,1.53,37.31,2,17.27,.66,34.55,.99,51.82,1.54,7.94,.25,15.88,1.06,23.81,.97,15.3-.17,30.61-.57,45.89-1.37,4.93-.26,7.04,1.7,7.12,6,.21,11.24,2.16,22.27,1.27,33.74-1.13,14.52,.69,29.27,1.39,43.92,.65,13.62,1.53,27.22,2.28,40.84,1.23,22.38,2.38,44.76,3.68,67.13,.66,11.44,1.56,22.87,2.32,34.3,.07,1.1-.08,2.22-.2,4.81Zm-132.02-100.58c-1.33,1.39-2.12,2.01-2.65,2.81-2.15,3.23-1.04,19.9,1.77,22.53,.73,.69,3.16,.6,4.06-.1,4.57-3.56,8.96-7.38,13.28-11.25,1.07-.96,1.67-2.44,2.48-3.68l-1.12-1.44c-3.28,1.62-6.56,3.24-11.36,5.61,1.12-3.49,1.34-5.89,2.54-7.57,5.67-7.94,11.46-15.8,17.52-23.45,3.4-4.29,7.39-8.11,11.15-12.11,2.24-2.38,4.18-3.17,5.96,.69,3.14,6.79,6.58,13.44,9.89,20.14,2.41,4.87,4.97,9.67,7.12,14.64,.53,1.23-.28,3.04-.48,4.59-1.34-.41-2.65-.9-4.01-1.2-1.62-.36-3.27-.56-4.91-.83,.32,1.8,.01,4.26,1.08,5.29,3.94,3.77,7.9,7.96,12.68,10.3,4.77,2.34,8.92,4.09,9.41,10.13,.06,.75,2.24,1.46,3.54,1.85,.2,.06,1.56-1.87,1.35-2.55-1.37-4.22-3.13-8.31-4.57-12.5-1.29-3.77,.76-9.6-6.24-9.74-.3,0-.65-.72-.88-1.16-3.07-5.85-6.3-11.63-9.14-17.59-3.2-6.72-6.11-13.59-9.04-20.44-1.55-3.63-2.81-7.38-4.37-11-.53-1.24-1.56-2.27-2.37-3.4-1.12,.84-2.43,1.51-3.32,2.54-3.34,3.9-6.34,8.11-9.84,11.87-8.8,9.47-18.89,17.9-23.35,30.7-.42,1.22-2.09,2.01-3.62,3.39-.98-2.7-1.62-4.48-2.57-7.09Zm115.42-83.84c-.87-2.85-.87-5.12-1.93-5.85-3-2.06-3.58-4.59-3.91-7.99-.16-1.66-3.22-3.19-5.21-4.36-.29-.17-2.6,1.91-2.89,3.19-.86,3.81-1.02,7.78-1.77,11.63-.32,1.63-1.41,3.11-2.14,4.66-1.67-.86-3.88-1.3-4.9-2.65-1.96-2.59-1.87-5.38,.54-8.16,.87-1,.37-3.18,.5-4.82-1.36,.84-3.11,1.4-4.02,2.59-2.79,3.68-1.56,7.4,.04,11.29,.57,1.39-.17,3.76-1.09,5.17-.61,.94-3.54,1.65-3.81,1.28-.98-1.33-1.57-3.14-1.72-4.83-.13-1.41,.75-2.88,.84-4.35,.07-1.17-.38-2.38-.6-3.57-1.14,.69-2.82,1.12-3.33,2.13-1.68,3.31-2.69,6.72-.34,10.4,.67,1.05,.65,3.72-.09,4.29-2.25,1.73-5.01,2.79-8.7,4.69,.3-4.79,.51-8.13,.72-11.48l-1.57-.47c-1.01,1.34-2.48,2.54-2.94,4.04-.81,2.66-.95,5.52-1.48,8.28-.62,3.19,.73,4.35,3.8,4,2.35-.27,4.71-.49,8.01-.82-3.07,4.51-5.5,8.07-8.1,11.87,3.01,1.4,5.92,1.88,6.56-1.28,.98-4.86,3.99-5.02,7.73-4.87,1.21,.05,2.44-.37,5.26-.84-3.53-2.86-5.96-4.82-8.02-6.48,.99-2.66,1.83-4.93,3.18-8.55,1.28,3.2,1.78,5.55,3.06,7.36,1.57,2.22,3.84,3.62,6.67,1.12-1.58-2.26-3.02-4.31-4.85-6.93,1.74-.15,2.4-.41,2.66-.19,1.52,1.26,2.94,2.65,4.4,3.97,3.9,3.51,5.78,3.17,8.17-1.33,.62-1.16,1.4-2.29,2.32-3.21,2.87-2.86,2.37-5.41-.15-8.26-1.29-1.46-1.91-3.5-3.2-5.97,4.47,1.94,7.69,3.33,12.28,5.32Zm-84.15,22.79c-2.43-1.44-4.29-2.01-5.35-3.27-3.21-3.79-6.12-7.84-9.11-11.81-2.35-3.12-4.88-2.91-7.64-.6-.71,.6-1.52,1.07-1.26,.89-3.48-1.23-5.96-2.68-8.5-2.78-1.3-.05-2.69,2.29-4.04,3.55,1.4,1.09,2.68,2.86,4.23,3.14,3.73,.68,7.61,1.05,11.38,.83,3.89-.22,5.4,1.47,6.09,4.93,1.42,7.09,1.5,7.07,9.25,5.76-.17,2.32,.04,4.5-.55,6.42-.73,2.38-.25,4.02,2.18,3.58,3.75-.68,4.89,1.31,6.27,4.11,.81,1.65,2.81,2.72,4.98,4.7-1.46-8.88-2.53-16.19-3.97-23.42-.24-1.21-2.07-2.11-3.94-3.89v7.84Zm27.37-13.14l-2.62-.72c-.81,2.74-2.13,5.45-2.31,8.24-.2,3.1,.43,6.3,1.06,9.38,.78,3.8-.61,6.34-3.57,8.58-1.61,1.22-2.81,3-4.05,4.63-.1,.13,1.2,1.65,1.34,1.58,2-1.07,3.92-2.29,5.84-3.51,.26-.17,.36-.57,.62-.77,2.78-2.19,5.43-4.57,8.4-6.48,3.35-2.16,4.7-4.84,3.82-8.94-.88,.15-1.53,.17-2.13,.37-7.35,2.52-8.47,1.59-7.13-5.81,.39-2.15,.49-4.36,.73-6.54Zm-48.13-6.91c3.92-9.13,.61-17.59,.98-26.68-5.91,4.27-6.35,20.77-.98,26.68Zm-13.83-13.63c-1.15-1.41-1.69-2.55-2.58-3.07-3.85-2.25-7.71-4.57-11.79-6.32-1.34-.58-3.38,.48-5.1,.78,.83,1.71,1.24,4.33,2.58,4.96,4.41,2.08,9.13,3.52,13.8,4.99,.69,.22,1.75-.73,3.09-1.34Zm7.47,11.52c-.87-.96-1.29-1.8-1.94-2.07-3.82-1.6-7.71-3.05-11.56-4.59-2.66-1.06-5.69-2.6-7.08,1.26-1.38,3.83,2.24,4.33,4.6,4.92,4.34,1.09,8.78,1.8,13.22,2.41,.74,.1,1.67-1.13,2.75-1.93Zm-2.2-31.02c-5.18,3.1-5.84,6.85-4.49,10.26,1.63,4.13,.84,9.61,6.35,13.26-.66-8.33-1.22-15.43-1.85-23.52Zm20.13,34.45v-19.1c-4.54,5.83-4.42,14.24,0,19.1Zm8.57,8.72v-16.93c-5.08,8.09-5.27,13.85,0,16.93Z"/><path class="cls-1" d="M349.31,350.05c-4.77,.39-8.88,.7-12.99,1.06-4.12,.37-8.25,.72-12.36,1.21-4.09,.48-8.17,1.08-12.25,1.68-5.35,.78-10.73,2.65-15.81-1.21-.87-.66-2.67-.59-3.85-.24-7.54,2.25-14.65-.49-21.98-1.35-8.38-.99-14.28-5.72-20.13-10.87-.74-.65-1.47-2.26-1.16-2.94,.43-.94,1.79-1.59,2.88-2.06,.7-.3,1.75-.34,2.44-.04,6.62,2.86,12.18-.81,18.2-2.51,11.52-3.26,19.79-11.14,28.4-18.65,5.36-4.68,14.47-4.5,20.23-.14,6.68,5.05,13.46,10.02,20.54,14.49,4.31,2.72,8.94,2.89,13.37-.92,2.34-2.01,5.78-5.32,8.57-2.15,1.2,1.36-.33,6.29-1.94,8.73-3.89,5.9-8.56,11.28-12.18,15.92Zm-32.52-12.51c-1.67,1.06-2.75,2.32-3.94,2.42-9.35,.76-18.5,.12-27.28-3.79-1.63-.73-4.01,.2-6.04,.36,1.05,1.78,1.98,3.65,3.22,5.28,.54,.7,1.71,1.19,2.64,1.28,9.15,.86,18.05,2.98,27.56,.42,5.94-1.6,9.77-5.26,14.3-8.4,.93-.65,1.39-1.99,2.06-3.01-1.29-.5-2.55-1.2-3.88-1.45-4.51-.84-9.05-1.5-13.57-2.29-.97-.17-2.14-1.15-2.78-.85-1.69,.8-3.28,1.97-4.62,3.29-.5,.48-.57,2.38-.23,2.58,1.06,.61,2.83,1.38,3.58,.9,4.19-2.64,5.77,1,8.98,3.26Z"/><path class="cls-1" d="M253.39,330.48c-1.29-8.27-1.68-16.41,3.46-23.74,.94-1.33,1.77-2.9,3.04-3.82,6.39-4.62,12.7-9.42,19.48-13.41,3.27-1.92,7.51-2.18,11.32-3.2,.2,.48,.4,.95,.61,1.43-5.17,3.31-10.41,6.52-15.48,9.98-3.9,2.66-7.72,5.48-11.31,8.54-2.27,1.94-4.17,4.38-6.02,6.75-2.82,3.62-3.5,7.56-2.19,12.13,.46,1.61-1.02,3.78-1.62,5.7-.43-.12-.86-.24-1.28-.37Z"/><path class="cls-1" d="M299.56,126.77c0-4.98,.41-10-.09-14.93-.85-8.36-1.91-16.75-3.62-24.97-.9-4.31-.21-6.91,3.58-9.14,7.46-4.4,15.33-6.57,23.88-4.68,6.3,1.39,12.13,4.53,13.06,11.4,2.16,15.88,6.8,31.59,4.14,47.93-.41,2.54,.06,5.32,.57,7.89,.65,3.23-.61,4.37-3.61,4.09-1.32-.12-2.72-.22-3.92-.72-9.64-4.08-18.43-1.06-27.32,2.72-1.15,.49-4.21-1.08-4.89-2.44-1.21-2.42-1.51-5.39-1.76-8.17-.27-2.97-.06-5.99-.06-8.98h.04Zm24.26-28.06c.02,.73,.03,1.45,.05,2.18,2.38,.73,4.76,1.46,7.15,2.18-.77-2-1.23-4.25-2.49-5.86-.36-.45-3.07,.94-4.71,1.49Zm-.38,33.35c1.94-1.31,3.03-2.05,4.12-2.79-1.31-1.27-2.47-2.8-4.01-3.64-.46-.25-2.93,1.62-2.82,2.23,.24,1.35,1.53,2.5,2.71,4.2Zm-13.74-44.62c.75,.43,1.5,.86,2.25,1.3,.47-1.34,1.64-2.94,1.26-3.95-.55-1.44-2.24-2.45-3.45-3.64-.95,.99-2.71,2.05-2.65,2.97,.08,1.16,1.66,2.22,2.59,3.32Zm12.97,0c.48-.82,.95-1.64,1.43-2.46-1.78-1.12-3.55-2.24-5.33-3.36l-1.68,2.75c1.86,1.02,3.72,2.05,5.57,3.07Zm-12.95,39.09c-.73-.05-1.46-.1-2.19-.15-.3,1.72-.8,3.44-.74,5.14,.01,.35,2.11,.62,3.24,.93-.11-1.97-.21-3.95-.32-5.92Zm-.2-29.25l-2.97,.43c.36,1.84,.64,3.7,1.18,5.48,.07,.21,1.61-.03,2.47-.07l-.68-5.84Zm11.4,3.76l.56-2.51-5.42-1.83c-.21,1.19-.42,2.39-.62,3.58l5.49,.76Z"/><path d="M92.62,334.21c.95,2.61,1.59,4.39,2.57,7.09,1.53-1.38,3.19-2.17,3.62-3.39,4.46-12.8,14.54-21.24,23.35-30.7,3.49-3.76,6.49-7.96,9.84-11.87,.89-1.04,2.2-1.71,3.32-2.54,.8,1.13,1.84,2.16,2.37,3.4,1.55,3.62,2.81,7.38,4.37,11,2.93,6.85,5.84,13.72,9.04,20.44,2.84,5.96,6.07,11.74,9.14,17.59,.23,.44,.58,1.15,.88,1.16,7,.14,4.95,5.96,6.24,9.74,1.44,4.2,3.2,8.29,4.57,12.5,.22,.67-1.14,2.61-1.35,2.55-1.3-.39-3.48-1.1-3.54-1.85-.48-6.04-4.64-7.79-9.41-10.13-4.78-2.35-8.74-6.53-12.68-10.3-1.07-1.02-.76-3.49-1.08-5.29,1.64,.27,3.3,.47,4.91,.83,1.36,.3,2.68,.8,4.01,1.2,.2-1.55,1.01-3.36,.48-4.59-2.15-4.98-4.71-9.78-7.12-14.64-3.32-6.71-6.75-13.36-9.89-20.14-1.79-3.86-3.72-3.07-5.96-.69-3.76,4-7.75,7.82-11.15,12.11-6.06,7.64-11.85,15.51-17.52,23.45-1.21,1.69-1.42,4.09-2.54,7.57,4.8-2.37,8.08-3.99,11.36-5.61l1.12,1.44c-.81,1.24-1.41,2.73-2.48,3.68-4.32,3.87-8.7,7.69-13.28,11.25-.9,.7-3.33,.79-4.06,.1-2.81-2.63-3.92-19.3-1.77-22.53,.53-.8,1.32-1.42,2.65-2.81Z"/><path d="M208.04,250.36c-4.59-1.99-7.81-3.39-12.28-5.32,1.28,2.47,1.91,4.51,3.2,5.97,2.51,2.86,3.02,5.4,.15,8.26-.93,.92-1.71,2.05-2.32,3.21-2.39,4.5-4.28,4.84-8.17,1.33-1.47-1.32-2.88-2.71-4.4-3.97-.26-.22-.92,.04-2.66,.19,1.83,2.62,3.27,4.67,4.85,6.93-2.83,2.5-5.1,1.1-6.67-1.12-1.28-1.81-1.78-4.16-3.06-7.36-1.35,3.62-2.19,5.89-3.18,8.55,2.05,1.66,4.48,3.62,8.02,6.48-2.82,.47-4.05,.89-5.26,.84-3.73-.15-6.75,.01-7.73,4.87-.64,3.16-3.54,2.68-6.56,1.28,2.6-3.81,5.02-7.37,8.1-11.87-3.3,.34-5.66,.55-8.01,.82-3.07,.36-4.42-.8-3.8-4,.53-2.76,.67-5.62,1.48-8.28,.46-1.51,1.93-2.71,2.94-4.04l1.57,.47c-.21,3.35-.42,6.69-.72,11.48,3.69-1.9,6.45-2.97,8.7-4.69,.74-.57,.77-3.24,.09-4.29-2.35-3.67-1.34-7.09,.34-10.4,.51-1.01,2.19-1.44,3.33-2.13,.22,1.19,.67,2.4,.6,3.57-.09,1.47-.97,2.94-.84,4.35,.15,1.68,.74,3.5,1.72,4.83,.28,.37,3.2-.34,3.81-1.28,.92-1.41,1.66-3.78,1.09-5.17-1.6-3.89-2.84-7.62-.04-11.29,.91-1.19,2.66-1.74,4.02-2.59-.13,1.64,.37,3.82-.5,4.82-2.4,2.77-2.5,5.57-.54,8.16,1.02,1.35,3.23,1.8,4.9,2.65,.74-1.55,1.83-3.03,2.14-4.66,.75-3.85,.91-7.81,1.77-11.63,.29-1.28,2.6-3.36,2.89-3.19,1.99,1.17,5.05,2.7,5.21,4.36,.33,3.41,.91,5.93,3.91,7.99,1.06,.73,1.06,3,1.93,5.85Z"/><path d="M123.89,273.15v-7.84c1.87,1.79,3.7,2.68,3.94,3.89,1.44,7.23,2.51,14.53,3.97,23.42-2.17-1.98-4.16-3.05-4.98-4.7-1.38-2.8-2.52-4.79-6.27-4.11-2.43,.44-2.91-1.2-2.18-3.58,.59-1.93,.38-4.1,.55-6.42-7.75,1.31-7.83,1.33-9.25-5.76-.7-3.46-2.21-5.15-6.09-4.93-3.78,.22-7.66-.15-11.38-.83-1.55-.28-2.83-2.05-4.23-3.14,1.35-1.26,2.75-3.61,4.04-3.55,2.54,.11,5.02,1.55,8.5,2.78-.26,.18,.55-.3,1.26-.89,2.76-2.32,5.3-2.52,7.64,.6,2.99,3.98,5.9,8.02,9.11,11.81,1.06,1.25,2.92,1.83,5.35,3.27Z"/><path d="M151.27,260.01c-.24,2.18-.34,4.39-.73,6.54-1.34,7.4-.23,8.33,7.13,5.81,.59-.2,1.25-.23,2.13-.37,.88,4.1-.47,6.79-3.82,8.94-2.96,1.91-5.62,4.29-8.4,6.48-.25,.2-.35,.61-.62,.77-1.92,1.22-3.84,2.44-5.84,3.51-.14,.08-1.44-1.45-1.34-1.58,1.24-1.63,2.44-3.41,4.05-4.63,2.96-2.23,4.35-4.78,3.57-8.58-.64-3.08-1.27-6.29-1.06-9.38,.18-2.78,1.5-5.49,2.31-8.24l2.62,.72Z"/><path d="M103.14,253.1c-5.37-5.9-4.93-22.41,.98-26.68-.37,9.09,2.94,17.55-.98,26.68Z"/><path d="M89.31,239.47c-1.34,.61-2.4,1.56-3.09,1.34-4.67-1.47-9.39-2.91-13.8-4.99-1.34-.63-1.75-3.25-2.58-4.96,1.72-.31,3.76-1.36,5.1-.78,4.09,1.75,7.94,4.07,11.79,6.32,.89,.52,1.43,1.66,2.58,3.07Z"/><path d="M96.78,250.99c-1.08,.79-2.01,2.03-2.75,1.93-4.44-.61-8.88-1.32-13.22-2.41-2.37-.59-5.98-1.09-4.6-4.92,1.39-3.86,4.42-2.32,7.08-1.26,3.85,1.54,7.73,2.99,11.56,4.59,.65,.27,1.07,1.11,1.94,2.07Z"/><path d="M94.58,219.97c.64,8.09,1.2,15.19,1.85,23.52-5.51-3.65-4.71-9.13-6.35-13.26-1.35-3.42-.69-7.16,4.49-10.26Z"/><path d="M114.71,254.42c-4.42-4.86-4.54-13.27,0-19.1v19.1Z"/><path d="M123.28,263.14c-5.27-3.08-5.08-8.85,0-16.93v16.93Z"/><path d="M316.79,337.54c-3.21-2.26-4.79-5.91-8.98-3.26-.75,.47-2.52-.29-3.58-.9-.34-.2-.27-2.09,.23-2.58,1.35-1.31,2.93-2.48,4.62-3.29,.64-.31,1.81,.68,2.78,.85,4.52,.79,9.06,1.45,13.57,2.29,1.34,.25,2.59,.96,3.88,1.45-.67,1.02-1.13,2.36-2.06,3.01-4.53,3.15-8.36,6.8-14.3,8.4-9.51,2.56-18.41,.44-27.56-.42-.93-.09-2.1-.58-2.64-1.28-1.24-1.63-2.17-3.51-3.22-5.28,2.03-.16,4.4-1.09,6.04-.36,8.78,3.91,17.93,4.54,27.28,3.79,1.18-.1,2.27-1.36,3.94-2.42Z"/><path d="M323.82,98.72c1.63-.55,4.35-1.95,4.71-1.49,1.27,1.61,1.73,3.85,2.49,5.86-2.38-.73-4.76-1.46-7.15-2.18-.02-.73-.03-1.45-.05-2.18Z"/><path d="M323.43,132.07c-1.19-1.7-2.47-2.86-2.71-4.2-.11-.6,2.36-2.48,2.82-2.23,1.54,.84,2.71,2.37,4.01,3.64-1.09,.74-2.18,1.48-4.12,2.79Z"/><path d="M309.7,87.45c-.93-1.1-2.51-2.16-2.59-3.32-.06-.92,1.7-1.98,2.65-2.97,1.2,1.19,2.9,2.2,3.45,3.64,.39,1.01-.78,2.61-1.26,3.95-.75-.43-1.5-.86-2.25-1.3Z"/><path d="M322.67,87.46c-1.86-1.02-3.72-2.05-5.57-3.07l1.68-2.75c1.78,1.12,3.55,2.24,5.33,3.36-.48,.82-.95,1.64-1.43,2.46Z"/><path d="M309.72,126.54c.11,1.97,.21,3.95,.32,5.92-1.14-.31-3.23-.58-3.24-.93-.06-1.7,.44-3.42,.74-5.14,.73,.05,1.46,.1,2.19,.15Z"/><path d="M309.51,97.29l.68,5.84c-.86,.03-2.41,.28-2.47,.07-.55-1.78-.82-3.65-1.18-5.48l2.97-.43Z"/><path d="M320.92,101.05l-5.49-.76c.21-1.19,.42-2.39,.62-3.58l5.42,1.83-.56,2.51Z"/></svg>