<svg id="Layer_1" data-name="Layer 1" xmlns="http://www.w3.org/2000/svg" width="640" height="640" viewBox="0 0 640 640"><defs><style>.cls-1{fill:#fff;}.cls-2{fill:#ffb450;}.cls-3{fill:#ff78a9;}.cls-4{fill:#fffa4a;}.cls-5{fill:#c788ff;}.cls-6{fill:#76ff86;}.cls-7{fill:#8dc9ff;}</style></defs><title>beachball</title><path class="cls-1" d="M516.33,186.3a27.57,27.57,0,0,0-.26,3.85,77.57,77.57,0,0,1-5,19.59,63.42,63.42,0,0,1-26.25,30.45c-.47.29-.93.6-1.4.91a87.76,87.76,0,0,1-10.89,4.76,73.07,73.07,0,0,1-15.17,3.35,78.25,78.25,0,0,1-15.9.21,91,91,0,0,1-26.7-6.72,100.83,100.83,0,0,1-24.26-14.51c-.26-.21-.54-.38-.82-.57-3.39-3-6.73-6.07-9.85-9.38a102.29,102.29,0,0,1-14.54-19.68,94.39,94.39,0,0,1-10-25.41,72.29,72.29,0,0,1-2-13.26c0-.61-.17-1.22-.26-1.83a79.49,79.49,0,0,1,.34-10.58,70.19,70.19,0,0,1,5.3-21.58,63.7,63.7,0,0,1,15.45-22,62.48,62.48,0,0,1,18.89-12,4.05,4.05,0,0,0,1-.54c2.28-.71,4.55-1.46,6.85-2.1a69.56,69.56,0,0,1,11.1-2.16c1.38-.16,2.76-.26,4.15-.32.11-.17.24-.18.37,0h1a.44.44,0,0,1,.42-.21l5.93,0a.38.38,0,0,1,.42.2,77.21,77.21,0,0,1,20.08,3.23,93.79,93.79,0,0,1,23.26,10.18,102.33,102.33,0,0,1,18,13.87,34.81,34.81,0,0,0,3.77,3.51,31.19,31.19,0,0,0,3.57,4.2,101.24,101.24,0,0,1,14.09,21.43,92.1,92.1,0,0,1,8.15,25.32A85.67,85.67,0,0,1,516.33,186.3Z"/><path class="cls-2" d="M493.26,353.44c-.11,5.15-.52,10.29-.43,15.45a4.1,4.1,0,0,1,0,.5,72.4,72.4,0,0,0-.64,9.19,11.43,11.43,0,0,1,0,1.17c-.32,3.61-.56,7.23-1,10.83-.19,1.5-.09,3-.36,4.5-.6,3.36-.72,6.76-1.2,10.13-.39,2.81-.66,5.64-1.06,8.46-.68,4.91-1.3,9.83-2.09,14.72-.92,5.78-1.92,11.55-3,17.29q-2.88,15-6.51,29.74c-1.09,4.4-2.3,8.75-3.44,13.13q-3.23,12.33-7.16,24.45c-2.18,6.76-4.37,13.53-6.81,20.2-1.9,5.2-3.76,10.42-5.78,15.57q-5.06,12.88-10.65,25.55c-3.06,7-6.29,13.86-9.59,20.72-3,6.16-6.16,12.21-9.26,18.3-.18.35-.42.66-.59,1q-1.49,2.91-2.95,5.82A108,108,0,0,1,410,623.79c-9.07,2.81-18.25,5.25-27.55,7.22q-10.06,2.15-20.26,3.66c-6.24.93-12.51,1.7-18.8,2.23-4.29.35-8.59.6-12.89.82-8.62.45-17.23.4-25.84.13-6.76-.22-13.5-.78-20.23-1.47a306.58,306.58,0,0,1-62.09-12.87c-8.11-2.57-16-5.77-23.85-9-11.18-4.59-22.15-9.65-32.86-15.27-7.24-3.79-14.2-8.07-21.06-12.53a293.61,293.61,0,0,1-29-21.44A106.92,106.92,0,0,1,99,547.68a2,2,0,0,1,.86-1c3.54-2.55,7-5.18,10.45-7.87,6.39-5,12.59-10.21,18.69-15.54,4.55-4,9-8,13.45-12.14,4.08-3.76,8.09-7.58,12.08-11.42,3.18-3.08,6.3-6.22,9.43-9.35,10.18-10.18,20.35-20.36,30.17-30.89,3.32-3.56,6.69-7.08,10-10.67,4.76-5.2,9.59-10.33,14.38-15.51,2.43-2.63,4.83-5.28,7.23-7.95q5.66-6.3,11.3-12.63c2-2.21,3.95-4.41,5.91-6.64q4.65-5.29,9.28-10.6c1.73-2,3.48-3.94,5.2-5.93,2.75-3.17,5.47-6.36,8.22-9.53,1.64-1.9,3.31-3.79,4.95-5.7,2.36-2.76,4.69-5.55,7-8.32s4.54-5.25,6.77-7.9c3.32-3.93,6.6-7.89,9.91-11.83,3.16-3.77,6.36-7.51,9.51-11.29,4.18-5,8.33-10.09,12.5-15.13,3.45-4.18,6.94-8.34,10.37-12.54,3.72-4.54,7.39-9.12,11.08-13.68,4.58-5.65,9.21-11.26,13.75-16.93s9.11-11.48,13.65-17.23c6.49-8.2,13-16.38,19.43-24.62,1.82-2.33,3.94-4.46,5.11-7.24.28.19.56.36.82.57a100.83,100.83,0,0,0,24.26,14.51,91,91,0,0,0,26.7,6.72,78.25,78.25,0,0,0,15.9-.21,73.07,73.07,0,0,0,15.17-3.35,87.76,87.76,0,0,0,10.89-4.76c.19.81.37,1.63.57,2.44,1.43,5.85,2.42,11.8,3.39,17.74.71,4.28,1.35,8.58,1.86,12.9s1.07,8.51,1.55,12.78c.4,3.6.72,7.21,1,10.82q.36,4.59.64,9.19c.27,4.06.46,8.14.67,12.21.23,4.47.19,8.95.32,13.43C493.66,339.55,493.42,346.5,493.26,353.44Z"/><path class="cls-3" d="M389.7,227.62c-1.17,2.78-3.29,4.91-5.11,7.24-6.43,8.24-12.94,16.42-19.43,24.62-4.54,5.75-9.06,11.52-13.65,17.23s-9.17,11.28-13.75,16.93c-3.69,4.56-7.36,9.14-11.08,13.68-3.43,4.2-6.92,8.36-10.37,12.54-4.17,5-8.32,10.1-12.5,15.13-3.15,3.78-6.35,7.52-9.51,11.29-3.31,3.94-6.59,7.9-9.91,11.83-2.23,2.65-4.52,5.26-6.77,7.9s-4.68,5.56-7,8.32c-1.64,1.91-3.31,3.8-4.95,5.7-2.75,3.17-5.47,6.36-8.22,9.53-1.72,2-3.47,3.95-5.2,5.93q-4.64,5.29-9.28,10.6c-2,2.23-3.94,4.43-5.91,6.64q-5.66,6.33-11.3,12.63c-2.4,2.67-4.8,5.32-7.23,7.95-4.79,5.18-9.62,10.31-14.38,15.51-3.29,3.59-6.66,7.11-10,10.67-9.82,10.53-20,20.71-30.17,30.89-3.13,3.13-6.25,6.27-9.43,9.35-4,3.84-8,7.66-12.08,11.42-4.43,4.09-8.9,8.16-13.45,12.14-6.1,5.33-12.3,10.55-18.69,15.54-3.44,2.69-6.91,5.32-10.45,7.87a2,2,0,0,0-.86,1c-1.15.45-1.92-.22-2.64-.93-3-3-6.08-6-9-9-2.62-2.76-5.11-5.64-7.64-8.49-6.08-6.89-11.76-14.11-17.22-21.5a343.82,343.82,0,0,1-22.76-35.29,257.47,257.47,0,0,1-13-26.91c-3.15-7.49-6-15.08-8.6-22.79A312.87,312.87,0,0,1,7.65,383c-1.31-6.87-2.48-13.76-3.35-20.7q-1.06-8.42-1.69-16.87c-.31-4.13-.46-8.27-.68-12.41-.31-5.66-.34-11.33-.16-17,.17-5.48.36-11,.79-16.44q.51-6.45,1.19-12.88c.43-4.11,1-8.21,1.65-12.31.75-4.92,1.55-9.84,2.65-14.69a323.29,323.29,0,0,1,13.23-43.51A70.25,70.25,0,0,1,24.19,209c0,.38-.09.79.16,1.17a2.69,2.69,0,0,0,1.21-.47c2.57-1.24,5.12-2.51,7.7-3.74,7.76-3.72,15.66-7.14,23.62-10.42C68,191,79.35,186.78,90.76,182.86c7.72-2.64,15.5-5.06,23.32-7.39S129.64,171,137.47,169c9.07-2.33,18.21-4.4,27.38-6.29,6-1.24,12-2.39,18.06-3.41s12.31-2,18.49-2.85c4.91-.67,9.83-1.27,14.75-1.89,3.81-.48,7.66-.66,11.48-1.11,1.44-.17,2.89-.18,4.33-.34,4.21-.49,8.45-.69,12.67-.94q6.85-.39,13.71-.65c2.35-.1,4.7-.06,7.05-.08l.37,0c10.41.1,20.82-.12,31.22.41.11.18.23.18.36,0a25.84,25.84,0,0,1,2.65.26h.37c3.29.1,6.56.42,9.84.65s6.44.55,9.67.8c1.33.1,2.66.21,4,.37,3.26.39,6.51.82,9.77,1.25,2.87.37,5.74.74,8.61,1.16l5.36.82L353,158h0l.06.06.1,0c.09.61.23,1.22.26,1.83a72.29,72.29,0,0,0,2,13.26,94.39,94.39,0,0,0,10,25.41,102.29,102.29,0,0,0,14.54,19.68C383,221.55,386.31,224.61,389.7,227.62Z"/><path class="cls-4" d="M631.19,337.73c-.28,6.32-.8,12.62-1.52,18.91-.67,5.79-1.43,11.55-2.37,17.3-1.48,9.06-3.39,18-5.66,26.93a313.44,313.44,0,0,1-17.31,49.76,316.65,316.65,0,0,1-73.14,102.85,311.08,311.08,0,0,1-37.33,29.88,313,313,0,0,1-71.62,36.37,4.11,4.11,0,0,1-1.61.44q1.47-2.91,2.95-5.82c.17-.35.41-.66.59-1,3.1-6.09,6.3-12.14,9.26-18.3,3.3-6.86,6.53-13.75,9.59-20.72q5.58-12.68,10.65-25.55c2-5.15,3.88-10.37,5.78-15.57,2.44-6.67,4.63-13.44,6.81-20.2q3.92-12.12,7.16-24.45c1.14-4.38,2.35-8.73,3.44-13.13q3.64-14.78,6.51-29.74c1.12-5.74,2.12-11.51,3-17.29.79-4.89,1.41-9.81,2.09-14.72.4-2.82.67-5.65,1.06-8.46.48-3.37.6-6.77,1.2-10.13.27-1.47.17-3,.36-4.5.46-3.6.7-7.22,1-10.83a11.43,11.43,0,0,0,0-1.17,72.4,72.4,0,0,1,.64-9.19,4.1,4.1,0,0,0,0-.5c-.09-5.16.32-10.3.43-15.45.16-6.94.4-13.89.19-20.83-.13-4.48-.09-9-.32-13.43-.21-4.07-.4-8.15-.67-12.21q-.29-4.61-.64-9.19c-.29-3.61-.61-7.22-1-10.82-.48-4.27-1.05-8.52-1.55-12.78s-1.15-8.62-1.86-12.9c-1-5.94-2-11.89-3.39-17.74-.2-.81-.38-1.63-.57-2.44.47-.31.93-.62,1.4-.91a63.42,63.42,0,0,0,26.25-30.45,77.57,77.57,0,0,0,5-19.59c2.77,1.22,5.41,2.68,8.08,4.09a272.87,272.87,0,0,1,31.78,19.7,255.67,255.67,0,0,1,26.51,21.87,238.52,238.52,0,0,1,22.38,24.32,216.36,216.36,0,0,1,23.65,36.22,24,24,0,0,0,2.13,4h0a2.65,2.65,0,0,0,.11.3,5.89,5.89,0,0,1,.15.82c.12,4.31.5,8.62.51,12.93,0,1.9.17,3.8.2,5.71C631.68,326,631.44,331.85,631.19,337.73Z"/><path class="cls-5" d="M394.14,91.41a4.05,4.05,0,0,1-1,.54,62.48,62.48,0,0,0-18.89,12,63.7,63.7,0,0,0-15.45,22,70.19,70.19,0,0,0-5.3,21.58,79.49,79.49,0,0,0-.34,10.58.29.29,0,0,0-.16,0h0l-5.36-.85-5.36-.82c-2.87-.42-5.74-.79-8.61-1.16-3.26-.43-6.51-.86-9.77-1.25-1.33-.16-2.66-.27-4-.37-3.23-.25-6.44-.57-9.67-.8s-6.55-.55-9.84-.65c-.11-.16-.24-.17-.37,0a25.84,25.84,0,0,0-2.65-.26H297c-10.4-.53-20.81-.31-31.22-.41-.13-.16-.25-.14-.37,0-2.35,0-4.7,0-7.05.08q-6.85.25-13.71.65c-4.22.25-8.46.45-12.67.94-1.44.16-2.89.17-4.33.34-3.82.45-7.67.63-11.48,1.11-4.92.62-9.84,1.22-14.75,1.89q-9.27,1.28-18.49,2.85c-6,1-12.06,2.17-18.06,3.41-9.17,1.89-18.31,4-27.38,6.29-7.83,2-15.64,4.14-23.39,6.46s-15.6,4.75-23.32,7.39C79.35,186.78,68,191,56.88,195.57c-8,3.28-15.86,6.7-23.62,10.42-2.58,1.23-5.13,2.5-7.7,3.74a2.69,2.69,0,0,1-1.21.47c-.25-.38-.13-.79-.16-1.17a23.35,23.35,0,0,0,.51-2.46c.33-3.52,1.76-6.69,3.16-9.86,2.51-5.69,5.09-11.35,7.93-16.89,4.85-9.47,10.09-18.73,15.83-27.7q6.3-9.85,13.29-19.2,5.48-7.33,11.4-14.31,6.21-7.29,12.78-14.25c2.89-3,5.8-6.08,8.84-9,4.95-4.7,10-9.31,15.19-13.73a317.86,317.86,0,0,1,25.46-19.47,314.41,314.41,0,0,1,68-35.32,325.3,325.3,0,0,1,38.14-11.57q11.15-2.67,22.48-4.44C272.81,10,278.39,9.21,284,8.69c4.06-.38,8.11-.78,12.18-1,1.72-.12,3.46-.16,5.18-.31l.33,0h1a.31.31,0,0,0,.36-.18l2,0c.11.15.21.14.3,0l2.36,0c.37.63,1.06.79,1.65,1.08a152.46,152.46,0,0,1,17.23,10c4.19,2.78,8.21,5.78,12.18,8.88a164.49,164.49,0,0,1,13.05,11.25c5.51,5.32,11,10.71,16,16.54,2.94,3.44,5.84,6.91,8.61,10.48A254.49,254.49,0,0,1,394.14,91.41Z"/><path class="cls-6" d="M630.61,300.29v0h0a24,24,0,0,1-2.13-4,216.36,216.36,0,0,0-23.65-36.22,238.52,238.52,0,0,0-22.38-24.32,255.67,255.67,0,0,0-26.51-21.87,272.87,272.87,0,0,0-31.78-19.7c-2.67-1.41-5.31-2.87-8.08-4.09a27.57,27.57,0,0,1,.26-3.85,85.67,85.67,0,0,0-1-17.74,92.1,92.1,0,0,0-8.15-25.32,101.24,101.24,0,0,0-14.09-21.43,31.19,31.19,0,0,1-3.57-4.2c.53-.4,1.08-.78,1.58-1.23A114.49,114.49,0,0,1,500.4,109a123.66,123.66,0,0,1,20-11.31,60.64,60.64,0,0,1,12.43-4.47c1.2,1.08,2.45,2.12,3.6,3.26a316.69,316.69,0,0,1,87.68,158c1.72,7.75,3.15,15.56,4.24,23.43.95,6.82,1.81,13.65,2.27,20.52C630.64,299.07,630.61,299.68,630.61,300.29Z"/><path class="cls-7" d="M532.81,93.22a60.64,60.64,0,0,0-12.43,4.47,123.66,123.66,0,0,0-20,11.31,114.49,114.49,0,0,0-9.33,7.38c-.5.45-1.05.83-1.58,1.23a34.81,34.81,0,0,1-3.77-3.51,102.33,102.33,0,0,0-18-13.87,93.79,93.79,0,0,0-23.26-10.18,77.21,77.21,0,0,0-20.08-3.23.38.38,0,0,0-.42-.2l-5.93,0a.44.44,0,0,0-.42.21h-1c-.13-.16-.26-.15-.37,0-1.39.06-2.77.16-4.15.32A69.56,69.56,0,0,0,401,89.31c-2.3.64-4.57,1.39-6.85,2.1a254.49,254.49,0,0,0-17.74-26c-2.77-3.57-5.67-7-8.61-10.48-5-5.83-10.45-11.22-16-16.54a164.49,164.49,0,0,0-13.05-11.25c-4-3.1-8-6.1-12.18-8.88a152.46,152.46,0,0,0-17.23-10c-.59-.29-1.28-.45-1.65-1.08l12-.09,2.16,0,.35,0,3.7,0a2.34,2.34,0,0,0,2.36,0c1.24-.1,2.43.42,3.67.25l.35,0c4.07.26,8.15.39,12.2.8,6,.61,12.08,1.3,18.09,2.2A313.72,313.72,0,0,1,429.64,28,320.46,320.46,0,0,1,462,42.68c8.44,4.4,16.64,9.2,24.66,14.33,7.73,5,15.2,10.28,22.48,15.87q7.32,5.61,14.24,11.74c2.63,2.35,5.28,4.67,7.9,7A6.59,6.59,0,0,1,532.81,93.22Z"/></svg>