<?xml version="1.0" encoding="utf-8"?>
<!-- Generator: Adobe Illustrator 27.3.1, SVG Export Plug-In . SVG Version: 6.00 Build 0)  -->
<svg version="1.1" id="Layer_1" xmlns="http://www.w3.org/2000/svg" xmlns:xlink="http://www.w3.org/1999/xlink" x="0px" y="0px"
	 viewBox="0 0 32 32" style="enable-background:new 0 0 32 32;" xml:space="preserve">
<style type="text/css">
	.st0{fill:#F5F5F5;}
</style>
<path class="st0" d="M16,22.7c-1.8,0-3.4-0.7-4.7-2c-1.3-1.3-2-2.9-1.9-4.7c0-1.8,0.7-3.4,2-4.7c1.3-1.3,2.9-2,4.7-1.9
	c1.8,0,3.4,0.7,4.7,2c1.3,1.3,2,2.9,1.9,4.7c0,1.8-0.7,3.4-2,4.7S17.8,22.7,16,22.7z M2.7,17.3c-0.4,0-0.7-0.1-1-0.4
	S1.3,16.4,1.3,16c0-0.4,0.1-0.7,0.4-1c0.3-0.3,0.6-0.4,0.9-0.4h2.7c0.4,0,0.7,0.1,1,0.4c0.3,0.3,0.4,0.6,0.4,0.9
	c0,0.4-0.1,0.7-0.4,1c-0.3,0.3-0.6,0.4-0.9,0.4H2.7z M26.7,17.3c-0.4,0-0.7-0.1-1-0.4c-0.3-0.3-0.4-0.6-0.4-0.9c0-0.4,0.1-0.7,0.4-1
	c0.3-0.3,0.6-0.4,0.9-0.4h2.7c0.4,0,0.7,0.1,1,0.4c0.3,0.3,0.4,0.6,0.4,0.9c0,0.4-0.1,0.7-0.4,1c-0.3,0.3-0.6,0.4-0.9,0.4H26.7z
	 M16,6.7c-0.4,0-0.7-0.1-1-0.4c-0.3-0.3-0.4-0.6-0.4-0.9V2.7c0-0.4,0.1-0.7,0.4-1c0.3-0.3,0.6-0.4,0.9-0.4c0.4,0,0.7,0.1,1,0.4
	c0.3,0.3,0.4,0.6,0.4,0.9v2.7c0,0.4-0.1,0.7-0.4,1C16.7,6.5,16.4,6.7,16,6.7z M16,30.7c-0.4,0-0.7-0.1-1-0.4
	c-0.3-0.3-0.4-0.6-0.4-0.9v-2.7c0-0.4,0.1-0.7,0.4-1c0.3-0.3,0.6-0.4,0.9-0.4c0.4,0,0.7,0.1,1,0.4c0.3,0.3,0.4,0.6,0.4,0.9v2.7
	c0,0.4-0.1,0.7-0.4,1C16.7,30.5,16.4,30.7,16,30.7z M7.5,9.4L6.1,8C5.8,7.8,5.7,7.4,5.7,7.1c0-0.4,0.1-0.7,0.4-1
	c0.3-0.3,0.6-0.4,1-0.4c0.4,0,0.7,0.1,0.9,0.4l1.4,1.4c0.2,0.3,0.4,0.6,0.4,0.9c0,0.4-0.1,0.7-0.4,0.9C9.2,9.7,8.9,9.8,8.5,9.8
	C8.1,9.8,7.8,9.6,7.5,9.4z M24,25.9l-1.4-1.4c-0.2-0.3-0.4-0.6-0.4-1s0.1-0.7,0.4-0.9c0.2-0.3,0.6-0.4,0.9-0.4
	c0.4,0,0.7,0.1,0.9,0.4l1.4,1.4c0.3,0.2,0.4,0.6,0.4,0.9c0,0.4-0.1,0.7-0.4,1c-0.3,0.3-0.6,0.4-1,0.4C24.6,26.3,24.2,26.2,24,25.9z
	 M22.6,9.4c-0.3-0.2-0.4-0.5-0.4-0.9c0-0.4,0.1-0.7,0.4-1L24,6.1c0.2-0.3,0.6-0.4,0.9-0.4c0.4,0,0.7,0.1,1,0.4
	c0.3,0.3,0.4,0.6,0.4,1c0,0.4-0.1,0.7-0.4,0.9l-1.4,1.4c-0.3,0.2-0.6,0.4-0.9,0.4S22.9,9.6,22.6,9.4z M6.1,25.9
	c-0.3-0.3-0.4-0.6-0.4-1c0-0.4,0.1-0.7,0.4-0.9l1.4-1.4c0.3-0.2,0.6-0.4,0.9-0.4c0.4,0,0.7,0.1,0.9,0.4c0.3,0.2,0.4,0.6,0.4,0.9
	s-0.1,0.7-0.4,0.9L8,25.9c-0.2,0.3-0.6,0.4-0.9,0.4S6.4,26.1,6.1,25.9z"/>
</svg>
