<?xml version="1.0" encoding="utf-8"?>
<!-- Generator: Adobe Illustrator 27.3.1, SVG Export Plug-In . SVG Version: 6.00 Build 0)  -->
<svg version="1.1" id="Layer_1" xmlns="http://www.w3.org/2000/svg" xmlns:xlink="http://www.w3.org/1999/xlink" x="0px" y="0px"
	 viewBox="0 0 32 32" style="enable-background:new 0 0 32 32;" xml:space="preserve">
<style type="text/css">
	.st0{fill:#F5F5F5;}
</style>
<path class="st0" d="M16,28c-3.3,0-6.2-1.2-8.5-3.5S4,19.3,4,16s1.2-6.2,3.5-8.5S12.7,4,16,4c0.3,0,0.6,0,0.9,0
	c0.3,0,0.6,0.1,0.9,0.1c-0.9,0.6-1.6,1.5-2.2,2.5s-0.8,2.2-0.8,3.3c0,2,0.7,3.7,2.1,5.1c1.4,1.4,3.1,2.1,5.1,2.1
	c1.2,0,2.3-0.3,3.4-0.8c1-0.5,1.9-1.3,2.5-2.2c0,0.3,0.1,0.6,0.1,0.9c0,0.3,0,0.6,0,0.9c0,3.3-1.2,6.2-3.5,8.5S19.3,28,16,28z
	 M16,25.3c2,0,3.7-0.5,5.3-1.6c1.6-1.1,2.7-2.5,3.4-4.2c-0.4,0.1-0.9,0.2-1.3,0.3s-0.9,0.1-1.3,0.1c-2.7,0-5.1-1-7-2.9
	s-2.9-4.3-2.9-7c0-0.4,0-0.9,0.1-1.3c0.1-0.4,0.2-0.9,0.3-1.3C10.8,8,9.4,9.2,8.3,10.7S6.7,14,6.7,16c0,2.6,0.9,4.8,2.7,6.6
	C11.2,24.4,13.4,25.3,16,25.3z"/>
</svg>
