<?xml version="1.0" ?><svg width="100px" height="100px" viewBox="0 0 100 100" style="enable-background:new 0 0 100 100;fill: #111;"
    version="1.1" xml:space="preserve" xmlns="http://www.w3.org/2000/svg" xmlns:xlink="http://www.w3.org/1999/xlink">
    <g id="network">
        <path
            d="M91,45c-2.4,0-4.4,1.7-4.9,4H81c-0.2-7.8-3.4-14.9-8.4-20.2l3.6-3.6C77.1,25.7,78,26,79,26c1.3,0,2.6-0.5,3.5-1.5   c1.9-1.9,1.9-5.1,0-7.1c-1.9-1.9-5.1-1.9-7.1,0c-1.7,1.7-1.9,4.4-0.6,6.3l-3.6,3.6c-5.3-5-12.4-8.1-20.2-8.4v-5.1   c2.3-0.5,4-2.5,4-4.9c0-2.8-2.2-5-5-5s-5,2.2-5,5c0,2.4,1.7,4.4,4,4.9V19c-7.8,0.2-14.9,3.4-20.2,8.4l-3.6-3.6   c1.3-1.9,1.1-4.6-0.6-6.3c-1.9-1.9-5.1-1.9-7.1,0c-1.9,1.9-1.9,5.1,0,7.1c1,1,2.3,1.5,3.5,1.5c1,0,1.9-0.3,2.8-0.8l3.6,3.6   c-5,5.3-8.1,12.4-8.4,20.2h-5.1c-0.5-2.3-2.5-4-4.9-4c-2.8,0-5,2.2-5,5s2.2,5,5,5c2.4,0,4.4-1.7,4.9-4H19   c0.2,7.8,3.4,14.9,8.4,20.2l-3.6,3.6c-1.9-1.3-4.6-1.1-6.3,0.6c-1.9,1.9-1.9,5.1,0,7.1c1,1,2.3,1.5,3.5,1.5c1.3,0,2.6-0.5,3.5-1.5   c1.7-1.7,1.9-4.4,0.6-6.3l3.6-3.6c5.3,5,12.4,8.1,20.2,8.4v5.1c-2.3,0.5-4,2.5-4,4.9c0,2.8,2.2,5,5,5s5-2.2,5-5   c0-2.4-1.7-4.4-4-4.9V81c7.8-0.2,14.9-3.4,20.2-8.4l3.6,3.6c-1.3,1.9-1.1,4.6,0.6,6.3c1,1,2.3,1.5,3.5,1.5c1.3,0,2.6-0.5,3.5-1.5   c1.9-1.9,1.9-5.1,0-7.1c-1.7-1.7-4.4-1.9-6.3-0.6l-3.6-3.6c5-5.3,8.1-12.4,8.4-20.2h5.1c0.5,2.3,2.5,4,4.9,4c2.8,0,5-2.2,5-5   S93.8,45,91,45z M51,78.9V66c3.9-0.1,7.6-0.5,11-1.2C59.7,72.7,55.6,78.2,51,78.9z M49,21.1V34c-3.9,0.1-7.6,0.5-11,1.2   C40.3,27.3,44.4,21.8,49,21.1z M66,49c-0.1-3.9-0.5-7.6-1.2-11c7.9,2.3,13.4,6.4,14.1,11H66z M55.7,55.6   C55.7,55.7,55.7,55.7,55.7,55.6C55.7,55.7,55.7,55.7,55.7,55.6C54.2,57.1,52.2,58,50,58s-4.2-0.9-5.6-2.3c0,0,0,0,0,0s0,0,0,0   C42.9,54.2,42,52.2,42,50s0.9-4.2,2.3-5.6c0,0,0,0,0,0s0,0,0,0c1.4-1.4,3.4-2.3,5.6-2.3s4.2,0.9,5.6,2.3c0,0,0,0,0,0s0,0,0,0   c1.4,1.4,2.3,3.4,2.3,5.6S57.1,54.2,55.7,55.6z M56.3,42.3c-1.5-1.2-3.3-2-5.3-2.2v-4c3.7,0.1,7.2,0.5,10.4,1.2L56.3,42.3z    M49,40.1c-2,0.2-3.8,1-5.3,2.2l-5.1-5.1c3.2-0.7,6.7-1.1,10.4-1.2V40.1z M42.3,43.7c-1.2,1.5-2,3.3-2.2,5.3h-4   c0.1-3.7,0.5-7.2,1.2-10.4L42.3,43.7z M40.1,51c0.2,2,1,3.8,2.2,5.3l-5.1,5.1c-0.7-3.2-1.1-6.7-1.2-10.4H40.1z M43.7,57.7   c1.5,1.2,3.3,2,5.3,2.2v4c-3.7-0.1-7.2-0.5-10.4-1.2L43.7,57.7z M51,59.9c2-0.2,3.8-1,5.3-2.2l5.1,5.1c-3.2,0.7-6.7,1.1-10.4,1.2   V59.9z M57.7,56.3c1.2-1.5,2-3.3,2.2-5.3h4c-0.1,3.7-0.5,7.2-1.2,10.4L57.7,56.3z M59.9,49c-0.2-2-1-3.8-2.2-5.3l5.1-5.1   c0.7,3.2,1.1,6.7,1.2,10.4H59.9z M51,34V21.1c4.6,0.7,8.7,6.2,11,14.1C58.6,34.5,54.9,34.1,51,34z M34,49H21.1   c0.7-4.6,6.2-8.7,14.1-11C34.5,41.4,34.1,45.1,34,49z M34,51c0.1,3.9,0.5,7.6,1.2,11c-7.9-2.3-13.4-6.4-14.1-11H34z M49,66v12.9   c-4.6-0.7-8.7-6.2-11-14.1C41.4,65.5,45.1,65.9,49,66z M66,51h12.9c-0.7,4.6-6.2,8.7-14.1,11C65.5,58.6,65.9,54.9,66,51z M65.4,36   l5.8-5.8c3.4,3.6,5.8,8.1,7,13C75.5,40.2,71,37.7,65.4,36z M64,34.6c-1.6-5.6-4.1-10.1-7.2-12.8c5,1.2,9.4,3.6,13,7L64,34.6z    M36,34.6l-5.8-5.8c3.6-3.4,8.1-5.8,13-7C40.2,24.5,37.7,29,36,34.6z M28.8,30.2l5.8,5.8c-5.6,1.6-10.1,4.1-12.8,7.2   C23,38.3,25.4,33.8,28.8,30.2z M34.6,64l-5.8,5.8c-3.4-3.6-5.8-8.1-7-13C24.5,59.8,29,62.3,34.6,64z M36,65.4   c1.6,5.6,4.1,10.1,7.2,12.8c-5-1.2-9.4-3.6-13-7L36,65.4z M64,65.4l5.8,5.8c-3.6,3.4-8.1,5.8-13,7C59.8,75.5,62.3,71,64,65.4z    M71.2,69.8L65.4,64c5.6-1.6,10.1-4.1,12.8-7.2C77,61.7,74.6,66.2,71.2,69.8z M76.9,18.9c0.6-0.6,1.4-0.9,2.1-0.9   c0.8,0,1.5,0.3,2.1,0.9c1.2,1.2,1.2,3.1,0,4.2c-1.2,1.2-3.1,1.2-4.2,0C75.7,22,75.7,20,76.9,18.9z M47,9c0-1.7,1.3-3,3-3s3,1.3,3,3   s-1.3,3-3,3S47,10.7,47,9z M18.9,23.1c-1.2-1.2-1.2-3.1,0-4.2c0.6-0.6,1.4-0.9,2.1-0.9c0.8,0,1.5,0.3,2.1,0.9   c1.2,1.2,1.2,3.1,0,4.2C22,24.3,20,24.3,18.9,23.1z M9,53c-1.7,0-3-1.3-3-3s1.3-3,3-3s3,1.3,3,3S10.7,53,9,53z M23.1,81.1   c-1.2,1.2-3.1,1.2-4.2,0c-1.2-1.2-1.2-3.1,0-4.2c1.2-1.2,3.1-1.2,4.2,0C24.3,78,24.3,80,23.1,81.1z M53,91c0,1.7-1.3,3-3,3   s-3-1.3-3-3s1.3-3,3-3S53,89.3,53,91z M81.1,76.9c1.2,1.2,1.2,3.1,0,4.2c-1.2,1.2-3.1,1.2-4.2,0c-1.2-1.2-1.2-3.1,0-4.2   C78,75.7,80,75.7,81.1,76.9z M91,53c-1.7,0-3-1.3-3-3s1.3-3,3-3s3,1.3,3,3S92.7,53,91,53z" />
    </g>
    <g id="connection" />
    <g id="page" />
    <g id="support" />
    <g id="configuration" />
    <g id="cloud_storage" />
    <g id="password" />
    <g id="search_engine" />
    <g id="history" />
    <g id="SEO" />
    <g id="optimization" />
    <g id="backlink" />
    <g id="performance" />
    <g id="analytics" />
    <g id="security" />
    <g id="dark_web" />
    <g id="video_player" />
    <g id="upload_download" />
    <g id="incognito_tab" />
    <g id="bookmark" />
</svg>