<?xml version="1.0" encoding="UTF-8"?><svg id="Layer_1" xmlns="http://www.w3.org/2000/svg" width="80" height="85" viewBox="0 0 80 85"><defs><style>.cls-1{fill:red;}</style></defs><path class="cls-1" d="m40,82.5c-5.53,0-10.73-1.05-15.6-3.15-4.87-2.1-9.1-4.95-12.7-8.55-3.6-3.6-6.45-7.83-8.55-12.7C1.05,53.23,0,48.03,0,42.5,0,36.97,1.05,31.77,3.15,26.9c2.1-4.87,4.95-9.1,8.55-12.7,3.6-3.6,7.83-6.45,12.7-8.55,4.87-2.1,10.07-3.15,15.6-3.15,5.53,0,10.73,1.05,15.6,3.15,4.87,2.1,9.1,4.95,12.7,8.55,3.6,3.6,6.45,7.83,8.55,12.7,2.1,4.87,3.15,10.07,3.15,15.6,0,5.53-1.05,10.73-3.15,15.6-2.1,4.87-4.95,9.1-8.55,12.7-3.6,3.6-7.83,6.45-12.7,8.55s-10.07,3.15-15.6,3.15Zm0-8c8.93,0,16.5-3.1,22.7-9.3s9.3-13.77,9.3-22.7c0-3.6-.58-7.07-1.75-10.4-1.17-3.33-2.85-6.4-5.05-9.2l-44.8,44.8c2.8,2.2,5.87,3.88,9.2,5.05,3.33,1.17,6.8,1.75,10.4,1.75Zm-25.2-12.4L59.6,17.3c-2.8-2.2-5.87-3.88-9.2-5.05-3.33-1.17-6.8-1.75-10.4-1.75-8.93,0-16.5,3.1-22.7,9.3-6.2,6.2-9.3,13.77-9.3,22.7,0,3.6.58,7.07,1.75,10.4,1.17,3.33,2.85,6.4,5.05,9.2Z"/></svg>